<svg xmlns="http://www.w3.org/2000/svg" xmlns:xlink="http://www.w3.org/1999/xlink" width="2098" zoomAndPan="magnify" viewBox="0 0 1573.5 1044.749973" height="1393" preserveAspectRatio="none" version="1.0"><defs><filter x="0%" y="0%" width="100%" xlink:type="simple" xlink:actuate="onLoad" height="100%" id="id1" xlink:show="other"><feColorMatrix values="0 0 0 0 1 0 0 0 0 1 0 0 0 0 1 0 0 0 1 0" color-interpolation-filters="sRGB"/></filter><clipPath id="id2"><path d="M 0 0.0390625 L 1573 0.0390625 L 1573 1044.460938 L 0 1044.460938 Z M 0 0.0390625 " clip-rule="nonzero"/></clipPath><clipPath id="id3"><path d="M 504 722 L 1573 722 L 1573 1044.460938 L 504 1044.460938 Z M 504 722 " clip-rule="nonzero"/></clipPath><mask id="id4"><g filter="url(#id1)"><rect x="-157.35" width="1888.2" fill="rgb(0%, 0%, 0%)" y="-104.474997" height="1253.699968" fill-opacity="0.2471"/></g></mask><clipPath id="id5"><path d="M 6 8 L 914 8 L 914 322.460938 L 6 322.460938 Z M 6 8 " clip-rule="nonzero"/></clipPath><clipPath id="id6"><path d="M 0.808594 2.164062 L 943 2.164062 L 943 322.460938 L 0.808594 322.460938 Z M 0.808594 2.164062 " clip-rule="nonzero"/></clipPath><clipPath id="id7"><path d="M 158 302 L 737 302 L 737 322.460938 L 158 322.460938 Z M 158 302 " clip-rule="nonzero"/></clipPath><clipPath id="id8"><path d="M 147 236 L 726 236 L 726 322.460938 L 147 322.460938 Z M 147 236 " clip-rule="nonzero"/></clipPath><clipPath id="id9"><path d="M 189 66 L 937 66 L 937 322.460938 L 189 322.460938 Z M 189 66 " clip-rule="nonzero"/></clipPath><clipPath id="id10"><path d="M 160 35 L 966 35 L 966 322.460938 L 160 322.460938 Z M 160 35 " clip-rule="nonzero"/></clipPath><clipPath id="id11"><path d="M 200 27 L 1069 27 L 1069 322.460938 L 200 322.460938 Z M 200 27 " clip-rule="nonzero"/></clipPath><clipPath id="id12"><path d="M 171 2.164062 L 1069 2.164062 L 1069 322.460938 L 171 322.460938 Z M 171 2.164062 " clip-rule="nonzero"/></clipPath><clipPath id="id13"><path d="M 439 264 L 1018 264 L 1018 322.460938 L 439 322.460938 Z M 439 264 " clip-rule="nonzero"/></clipPath><clipPath id="id14"><path d="M 450 198 L 1029 198 L 1029 322.460938 L 450 322.460938 Z M 450 198 " clip-rule="nonzero"/></clipPath><clipPath id="id15"><rect x="0" width="1069" y="0" height="323"/></clipPath><clipPath id="id16"><path d="M 0 0.0390625 L 1058 0.0390625 L 1058 830 L 0 830 Z M 0 0.0390625 " clip-rule="nonzero"/></clipPath><mask id="id17"><g filter="url(#id1)"><rect x="-157.35" width="1888.2" fill="rgb(0%, 0%, 0%)" y="-104.474997" height="1253.699968" fill-opacity="0.2471"/></g></mask><clipPath id="id18"><path d="M 0 0.0390625 L 978 0.0390625 L 978 780 L 0 780 Z M 0 0.0390625 " clip-rule="nonzero"/></clipPath><clipPath id="id19"><path d="M -151.714844 395.839844 L 482.128906 -417.617188 L 1061.902344 34.140625 L 428.058594 847.601562 Z M -151.714844 395.839844 " clip-rule="nonzero"/></clipPath><clipPath id="id20"><path d="M -151.714844 395.839844 L 482.128906 -417.617188 L 1061.902344 34.140625 L 428.058594 847.601562 Z M -151.714844 395.839844 " clip-rule="nonzero"/></clipPath><clipPath id="id21"><rect x="0" width="1058" y="0" height="830"/></clipPath><mask id="id22"><g filter="url(#id1)"><rect x="-157.35" width="1888.2" fill="rgb(0%, 0%, 0%)" y="-104.474997" height="1253.699968" fill-opacity="0.2471"/></g></mask><clipPath id="id23"><path d="M 0.03125 0.359375 L 663 0.359375 L 663 635.789062 L 0.03125 635.789062 Z M 0.03125 0.359375 " clip-rule="nonzero"/></clipPath><clipPath id="id24"><rect x="0" width="663" y="0" height="640"/></clipPath></defs><g clip-path="url(#id2)"><path fill="rgb(100%, 100%, 100%)" d="M 0 0.0390625 L 1573.5 0.0390625 L 1573.5 1052.289062 L 0 1052.289062 Z M 0 0.0390625 " fill-opacity="1" fill-rule="nonzero"/><path fill="rgb(10.978699%, 4.708862%, 33.729553%)" d="M 0 0.0390625 L 1573.5 0.0390625 L 1573.5 1044.789062 L 0 1044.789062 Z M 0 0.0390625 " fill-opacity="1" fill-rule="nonzero"/><path fill="rgb(100%, 100%, 100%)" d="M 0 0.0390625 L 1573.5 0.0390625 L 1573.5 1044.789062 L 0 1044.789062 Z M 0 0.0390625 " fill-opacity="1" fill-rule="nonzero"/><path fill="rgb(10.978699%, 4.708862%, 33.729553%)" d="M 0 0.0390625 L 1573.5 0.0390625 L 1573.5 1044.789062 L 0 1044.789062 Z M 0 0.0390625 " fill-opacity="1" fill-rule="nonzero"/></g><g clip-path="url(#id3)"><g mask="url(#id4)"><g transform="matrix(1, 0, 0, 1, 504, 722)"><g clip-path="url(#id15)"><g clip-path="url(#id5)"><path fill="rgb(100%, 44.309998%, 49.409485%)" d="M 19.21875 140.394531 L 724.347656 8.292969 C 724.84375 8.199219 725.347656 8.132812 725.851562 8.089844 C 726.355469 8.050781 726.863281 8.035156 727.367188 8.046875 C 727.875 8.058594 728.378906 8.097656 728.878906 8.160156 C 729.382812 8.226562 729.882812 8.316406 730.375 8.433594 C 730.871094 8.546875 731.359375 8.691406 731.839844 8.859375 C 732.320312 9.023438 732.792969 9.21875 733.257812 9.433594 C 733.71875 9.652344 734.171875 9.890625 734.613281 10.15625 C 735.054688 10.417969 735.480469 10.703125 735.898438 11.011719 C 736.3125 11.320312 736.710938 11.652344 737.09375 12 C 737.480469 12.351562 737.847656 12.722656 738.195312 13.109375 C 738.546875 13.5 738.878906 13.902344 739.191406 14.328125 C 739.503906 14.75 739.796875 15.1875 740.066406 15.640625 C 740.339844 16.097656 740.589844 16.5625 740.820312 17.042969 C 741.046875 17.523438 741.253906 18.011719 741.4375 18.515625 C 741.621094 19.015625 741.78125 19.523438 741.917969 20.042969 C 742.054688 20.5625 742.164062 21.085938 742.253906 21.613281 L 913.40625 1052.917969 C 913.492188 1053.445312 913.554688 1053.980469 913.59375 1054.515625 C 913.632812 1055.050781 913.648438 1055.589844 913.636719 1056.125 C 913.625 1056.664062 913.589844 1057.199219 913.527344 1057.734375 C 913.46875 1058.269531 913.382812 1058.796875 913.273438 1059.324219 C 913.164062 1059.847656 913.03125 1060.367188 912.871094 1060.878906 C 912.714844 1061.390625 912.535156 1061.890625 912.332031 1062.382812 C 912.125 1062.875 911.902344 1063.355469 911.652344 1063.824219 C 911.402344 1064.292969 911.132812 1064.75 910.84375 1065.1875 C 910.554688 1065.628906 910.242188 1066.054688 909.914062 1066.460938 C 909.585938 1066.871094 909.238281 1067.261719 908.871094 1067.632812 C 908.503906 1068.003906 908.125 1068.355469 907.726562 1068.6875 C 907.328125 1069.019531 906.914062 1069.332031 906.488281 1069.621094 C 906.058594 1069.910156 905.621094 1070.175781 905.167969 1070.417969 C 904.71875 1070.660156 904.257812 1070.882812 903.785156 1071.074219 C 903.3125 1071.269531 902.832031 1071.441406 902.34375 1071.585938 C 901.859375 1071.730469 901.363281 1071.851562 900.867188 1071.941406 L 195.738281 1204.046875 C 195.238281 1204.140625 194.738281 1204.207031 194.230469 1204.246094 C 193.726562 1204.289062 193.222656 1204.304688 192.714844 1204.292969 C 192.210938 1204.28125 191.707031 1204.242188 191.203125 1204.175781 C 190.699219 1204.113281 190.203125 1204.023438 189.707031 1203.90625 C 189.214844 1203.789062 188.726562 1203.648438 188.246094 1203.480469 C 187.761719 1203.3125 187.289062 1203.121094 186.828125 1202.90625 C 186.363281 1202.6875 185.910156 1202.449219 185.46875 1202.183594 C 185.03125 1201.917969 184.601562 1201.632812 184.1875 1201.324219 C 183.773438 1201.015625 183.371094 1200.6875 182.988281 1200.335938 C 182.605469 1199.988281 182.238281 1199.617188 181.886719 1199.230469 C 181.535156 1198.839844 181.207031 1198.433594 180.894531 1198.011719 C 180.582031 1197.589844 180.289062 1197.148438 180.015625 1196.695312 C 179.742188 1196.242188 179.492188 1195.777344 179.265625 1195.296875 C 179.035156 1194.816406 178.828125 1194.324219 178.644531 1193.824219 C 178.460938 1193.324219 178.300781 1192.8125 178.167969 1192.296875 C 178.03125 1191.777344 177.917969 1191.253906 177.828125 1190.722656 L 6.679688 159.421875 C 6.589844 158.890625 6.527344 158.359375 6.488281 157.824219 C 6.449219 157.285156 6.4375 156.75 6.449219 156.210938 C 6.457031 155.671875 6.492188 155.136719 6.554688 154.605469 C 6.617188 154.070312 6.699219 153.539062 6.808594 153.015625 C 6.917969 152.488281 7.054688 151.972656 7.210938 151.460938 C 7.367188 150.949219 7.550781 150.445312 7.753906 149.953125 C 7.957031 149.460938 8.183594 148.980469 8.429688 148.511719 C 8.679688 148.042969 8.949219 147.589844 9.238281 147.148438 C 9.53125 146.707031 9.839844 146.285156 10.167969 145.875 C 10.5 145.46875 10.847656 145.078125 11.210938 144.707031 C 11.578125 144.332031 11.960938 143.980469 12.359375 143.648438 C 12.757812 143.316406 13.167969 143.007812 13.597656 142.71875 C 14.023438 142.429688 14.460938 142.164062 14.914062 141.917969 C 15.367188 141.675781 15.828125 141.457031 16.300781 141.261719 C 16.769531 141.066406 17.25 140.898438 17.738281 140.753906 C 18.226562 140.609375 18.71875 140.488281 19.21875 140.394531 Z M 19.21875 140.394531 " fill-opacity="1" fill-rule="nonzero"/></g><g clip-path="url(#id6)"><path stroke-linecap="butt" transform="matrix(1.268605, -0.237667, 0.223689, 1.347878, 1255.446376, -299.452139)" fill="none" stroke-linejoin="miter" d="M -1000.89891 149.839817 L -445.068821 149.840593 C -444.677663 149.840011 -444.284003 149.860156 -443.893316 149.897166 C -443.503124 149.936987 -443.11292 149.994198 -442.729171 150.070557 C -442.342436 150.147444 -441.962157 150.243478 -441.587837 150.35585 C -441.211027 150.471559 -440.840176 150.603605 -440.478768 150.754274 C -440.113877 150.902658 -439.758924 151.072474 -439.412918 151.258102 C -439.066415 151.440919 -438.72985 151.645168 -438.401736 151.862417 C -438.077104 152.081951 -437.760922 152.314485 -437.457168 152.565114 C -437.152919 152.812932 -436.863589 153.075508 -436.583205 153.353895 C -436.305807 153.631756 -436.043328 153.924374 -435.794777 154.226129 C -435.543735 154.531221 -435.310103 154.847734 -435.093385 155.172857 C -434.874176 155.501316 -434.671385 155.835576 -434.4865 156.184066 C -434.301119 156.529746 -434.132652 156.884035 -433.984085 157.246408 C -433.833028 157.612118 -433.70088 157.98029 -433.585646 158.357072 C -433.473398 158.733328 -433.377073 159.112572 -433.300648 159.499899 C -433.223728 159.884416 -433.165716 160.271394 -433.12711 160.663645 C -433.088504 161.055897 -433.071297 161.447273 -433.069517 161.838826 L -433.069138 926.971017 C -433.070345 927.362044 -433.090461 927.755533 -433.128495 928.145863 C -433.166529 928.536192 -433.222977 928.926173 -433.299833 929.309658 C -433.377185 929.695953 -433.471959 930.076278 -433.587637 930.452917 C -433.700329 930.830082 -433.832934 931.19794 -433.983457 931.562639 C -434.133484 931.924527 -434.300934 932.280445 -434.488297 932.627055 C -434.672673 932.974193 -434.873481 933.309738 -435.091215 933.636503 C -435.311936 933.962742 -435.543115 934.278442 -435.793712 934.582023 C -436.044308 934.885605 -436.30835 935.178122 -436.584845 935.453953 C -436.861835 935.732595 -437.154761 935.996834 -437.457155 936.244914 C -437.760044 936.495804 -438.075386 936.730008 -438.403183 936.947526 C -438.730979 937.165043 -439.065256 937.366928 -439.411987 937.552126 C -439.758718 937.737324 -440.114916 937.906363 -440.477099 938.056958 C -440.842269 938.207026 -441.210438 938.339177 -441.587578 938.452357 C -441.961732 938.566065 -442.342368 938.664139 -442.727997 938.738147 C -443.114122 938.814967 -443.503246 938.873869 -443.894873 938.912043 C -444.283514 938.950744 -444.678141 938.971001 -445.068802 938.968773 L -1000.899388 938.970807 C -1001.293531 938.970863 -1001.684206 938.951244 -1002.077383 938.910897 C -1002.46807 938.873887 -1002.855288 938.817202 -1003.242023 938.740316 C -1003.625772 938.663957 -1004.006052 938.567922 -1004.382862 938.452213 C -1004.760168 938.339315 -1005.128032 938.207795 -1005.492427 938.0566 C -1005.853835 937.905932 -1006.209284 937.738926 -1006.555291 937.553298 C -1006.904284 937.367144 -1007.241344 937.165706 -1007.566472 936.948983 C -1007.894091 936.728923 -1008.210273 936.496389 -1008.514026 936.24576 C -1008.814794 935.995657 -1009.10711 935.732555 -1009.384508 935.454694 C -1009.661906 935.176834 -1009.927866 934.886499 -1010.175922 934.581934 C -1010.424473 934.280179 -1010.658105 933.963666 -1010.87781 933.638017 C -1011.097019 933.309557 -1011.296327 932.973014 -1011.481708 932.627334 C -1011.667089 932.281655 -1011.835061 931.924554 -1011.986614 931.561655 C -1012.138166 931.198755 -1012.270315 930.830583 -1012.382563 930.454328 C -1012.497797 930.077546 -1012.593626 929.695491 -1012.670547 929.310975 C -1012.747467 928.926458 -1012.804983 928.536669 -1012.841098 928.147755 C -1012.879705 927.755504 -1012.899898 927.363601 -1012.901182 926.969237 L -1012.89907 161.840384 C -1012.900354 161.446019 -1012.880733 161.055341 -1012.842699 160.665011 C -1012.80417 160.271871 -1012.745232 159.885227 -1012.66788 159.498932 C -1012.593514 159.11211 -1012.49874 158.731785 -1012.383558 158.357957 C -1012.267879 157.981318 -1012.137765 157.610123 -1011.987738 157.248235 C -1011.837215 156.883536 -1011.667274 156.530955 -1011.482898 156.183818 C -1011.298521 155.836681 -1011.094232 155.498851 -1010.876497 155.172086 C -1010.658763 154.845321 -1010.424598 154.530148 -1010.176987 154.226039 C -1009.926391 153.922457 -1009.662845 153.632751 -1009.385854 153.35411 C -1009.105878 153.075995 -1008.816433 152.81404 -1008.513544 152.563149 C -1008.208165 152.315596 -1007.892822 152.081392 -1007.568012 151.863348 C -1007.23972 151.64302 -1006.902457 151.441662 -1006.555726 151.256463 C -1006.208995 151.071265 -1005.856279 150.904511 -1005.491109 150.754442 C -1005.128926 150.603848 -1004.760757 150.471697 -1004.383121 150.355705 C -1004.00598 150.242525 -1003.625841 150.147262 -1003.239716 150.070442 C -1002.856577 149.993096 -1002.467949 149.937005 -1002.076321 149.89883 C -1001.684694 149.860656 -1001.293054 149.839873 -1000.89891 149.839817 Z M -1000.89891 149.839817 " stroke="rgb(0%, 0%, 0%)" stroke-width="4" stroke-opacity="1" stroke-miterlimit="4"/></g><g clip-path="url(#id7)"><path stroke-linecap="butt" transform="matrix(1.268605, -0.237667, 0.223689, 1.347878, 1255.446376, -299.452139)" fill="none" stroke-linejoin="miter" d="M -488.82951 373.921059 L -916.9292 373.918768 " stroke="rgb(0%, 0%, 0%)" stroke-width="2.375" stroke-opacity="1" stroke-miterlimit="4"/></g><g clip-path="url(#id8)"><path stroke-linecap="butt" transform="matrix(1.268605, -0.237667, 0.223689, 1.347878, 1255.446376, -299.452139)" fill="none" stroke-linejoin="miter" d="M -488.829666 324.729123 L -916.929851 324.729643 " stroke="rgb(0%, 0%, 0%)" stroke-width="2.375" stroke-opacity="1" stroke-miterlimit="4"/></g><path stroke-linecap="butt" transform="matrix(1.268605, -0.237667, 0.223689, 1.347878, 1255.446376, -299.452139)" fill="none" stroke-linejoin="miter" d="M -488.830317 275.539997 L -916.930503 275.540517 " stroke="rgb(0%, 0%, 0%)" stroke-width="2.375" stroke-opacity="1" stroke-miterlimit="4"/><path stroke-linecap="butt" transform="matrix(1.268605, -0.237667, 0.223689, 1.347878, 1255.446376, -299.452139)" fill="none" stroke-linejoin="miter" d="M -488.830969 226.350871 L -916.930659 226.34858 " stroke="rgb(0%, 0%, 0%)" stroke-width="2.375" stroke-opacity="1" stroke-miterlimit="4"/><g clip-path="url(#id9)"><path fill="rgb(100%, 44.309998%, 49.409485%)" d="M 205.191406 66.132812 L 921.199219 66.132812 C 921.703125 66.132812 922.210938 66.160156 922.714844 66.214844 C 923.21875 66.265625 923.71875 66.34375 924.214844 66.449219 C 924.710938 66.554688 925.203125 66.6875 925.6875 66.84375 C 926.171875 67 926.648438 67.179688 927.113281 67.386719 C 927.582031 67.589844 928.039062 67.820312 928.484375 68.074219 C 928.933594 68.328125 929.367188 68.605469 929.785156 68.902344 C 930.207031 69.203125 930.613281 69.523438 931.003906 69.863281 C 931.398438 70.203125 931.769531 70.566406 932.128906 70.945312 C 932.488281 71.324219 932.828125 71.722656 933.148438 72.140625 C 933.46875 72.554688 933.769531 72.988281 934.050781 73.433594 C 934.332031 73.882812 934.59375 74.34375 934.832031 74.816406 C 935.070312 75.289062 935.285156 75.777344 935.480469 76.273438 C 935.675781 76.769531 935.84375 77.277344 935.992188 77.792969 C 936.136719 78.304688 936.261719 78.828125 936.359375 79.355469 C 936.457031 79.882812 936.53125 80.414062 936.582031 80.949219 C 936.632812 81.484375 936.65625 82.019531 936.65625 82.558594 L 936.65625 1129.769531 C 936.65625 1130.308594 936.632812 1130.84375 936.582031 1131.378906 C 936.53125 1131.914062 936.457031 1132.445312 936.359375 1132.972656 C 936.261719 1133.5 936.136719 1134.023438 935.992188 1134.539062 C 935.84375 1135.050781 935.675781 1135.558594 935.480469 1136.054688 C 935.285156 1136.550781 935.070312 1137.039062 934.832031 1137.511719 C 934.59375 1137.988281 934.332031 1138.445312 934.050781 1138.894531 C 933.769531 1139.339844 933.46875 1139.773438 933.148438 1140.1875 C 932.828125 1140.605469 932.488281 1141.003906 932.128906 1141.382812 C 931.769531 1141.765625 931.398438 1142.125 931.003906 1142.464844 C 930.613281 1142.808594 930.207031 1143.128906 929.785156 1143.425781 C 929.367188 1143.726562 928.933594 1144 928.484375 1144.253906 C 928.039062 1144.507812 927.582031 1144.738281 927.113281 1144.945312 C 926.648438 1145.148438 926.171875 1145.332031 925.6875 1145.488281 C 925.203125 1145.644531 924.710938 1145.773438 924.214844 1145.878906 C 923.71875 1145.984375 923.21875 1146.0625 922.714844 1146.113281 C 922.210938 1146.167969 921.703125 1146.195312 921.199219 1146.195312 L 205.191406 1146.195312 C 204.6875 1146.195312 204.179688 1146.167969 203.675781 1146.113281 C 203.171875 1146.0625 202.671875 1145.984375 202.175781 1145.878906 C 201.679688 1145.773438 201.1875 1145.644531 200.703125 1145.488281 C 200.21875 1145.332031 199.746094 1145.148438 199.277344 1144.945312 C 198.808594 1144.738281 198.351562 1144.507812 197.90625 1144.253906 C 197.460938 1144 197.023438 1143.726562 196.605469 1143.425781 C 196.183594 1143.128906 195.777344 1142.808594 195.386719 1142.464844 C 194.996094 1142.125 194.621094 1141.765625 194.261719 1141.382812 C 193.902344 1141.003906 193.5625 1140.605469 193.242188 1140.1875 C 192.921875 1139.773438 192.621094 1139.339844 192.339844 1138.894531 C 192.058594 1138.445312 191.796875 1137.988281 191.558594 1137.511719 C 191.320312 1137.039062 191.105469 1136.550781 190.910156 1136.054688 C 190.71875 1135.558594 190.546875 1135.050781 190.398438 1134.539062 C 190.253906 1134.023438 190.128906 1133.5 190.03125 1132.972656 C 189.933594 1132.445312 189.859375 1131.914062 189.808594 1131.378906 C 189.757812 1130.84375 189.734375 1130.308594 189.734375 1129.769531 L 189.734375 82.558594 C 189.734375 82.019531 189.757812 81.484375 189.808594 80.949219 C 189.859375 80.414062 189.933594 79.882812 190.03125 79.355469 C 190.128906 78.828125 190.253906 78.304688 190.398438 77.792969 C 190.546875 77.277344 190.71875 76.769531 190.910156 76.273438 C 191.105469 75.777344 191.320312 75.289062 191.558594 74.816406 C 191.796875 74.34375 192.058594 73.882812 192.339844 73.433594 C 192.621094 72.988281 192.921875 72.554688 193.242188 72.140625 C 193.566406 71.722656 193.902344 71.324219 194.261719 70.945312 C 194.621094 70.566406 194.996094 70.203125 195.386719 69.863281 C 195.777344 69.523438 196.183594 69.203125 196.605469 68.902344 C 197.023438 68.605469 197.457031 68.328125 197.90625 68.074219 C 198.351562 67.820312 198.808594 67.589844 199.277344 67.386719 C 199.746094 67.179688 200.21875 67 200.703125 66.84375 C 201.1875 66.6875 201.679688 66.554688 202.175781 66.449219 C 202.671875 66.34375 203.171875 66.265625 203.675781 66.214844 C 204.179688 66.160156 204.6875 66.132812 205.191406 66.132812 Z M 205.191406 66.132812 " fill-opacity="1" fill-rule="nonzero"/></g><g clip-path="url(#id10)"><path stroke-linecap="butt" transform="matrix(1.288175, 0, 0, 1.368671, 1731.679811, -362.929982)" fill="none" stroke-linejoin="miter" d="M -1185.000604 313.488618 L -629.169529 313.488618 C -628.778351 313.488618 -628.38414 313.508596 -627.992962 313.548553 C -627.601784 313.585655 -627.213638 313.642736 -626.828524 313.719795 C -626.443411 313.796855 -626.061329 313.893892 -625.685313 314.008054 C -625.309297 314.122216 -624.939345 314.253502 -624.57849 314.404766 C -624.214604 314.553177 -623.859814 314.721566 -623.514121 314.907079 C -623.165397 315.092591 -622.828801 315.295229 -622.504336 315.512136 C -622.176837 315.731898 -621.861469 315.96593 -621.55823 316.214232 C -621.251958 316.462534 -620.963881 316.72796 -620.684901 317.004802 C -620.405921 317.281645 -620.142103 317.572757 -619.893447 317.87814 C -619.644791 318.180669 -619.411297 318.497468 -619.192965 318.82283 C -618.974633 319.151045 -618.771463 319.487822 -618.586487 319.833162 C -618.401511 320.178501 -618.23473 320.535257 -618.08311 320.897721 C -617.931491 321.260185 -617.801098 321.631211 -617.685867 322.007945 C -617.573669 322.381825 -617.476632 322.764267 -617.400823 323.149563 C -617.325013 323.534859 -617.267398 323.92301 -617.227976 324.314014 C -617.188555 324.705018 -617.170361 325.096022 -617.170361 325.489881 L -617.170361 1090.619632 C -617.170361 1091.013491 -617.188555 1091.404495 -617.227976 1091.795499 C -617.267398 1092.186504 -617.325013 1092.574654 -617.400823 1092.95995 C -617.476632 1093.345246 -617.573669 1093.727688 -617.685867 1094.104422 C -617.801098 1094.478302 -617.931491 1094.849328 -618.08311 1095.211792 C -618.23473 1095.574256 -618.401511 1095.931012 -618.586487 1096.276351 C -618.771463 1096.624545 -618.974633 1096.958468 -619.192965 1097.286684 C -619.411297 1097.612045 -619.644791 1097.928844 -619.893447 1098.231373 C -620.142103 1098.536756 -620.405921 1098.827868 -620.684901 1099.104711 C -620.963881 1099.384407 -621.251958 1099.64698 -621.55823 1099.895282 C -621.861469 1100.146438 -622.176837 1100.380469 -622.504336 1100.597377 C -622.828801 1100.817138 -623.165397 1101.016922 -623.514121 1101.202435 C -623.859814 1101.387948 -624.214604 1101.556336 -624.57849 1101.707601 C -624.939345 1101.856011 -625.309297 1101.990151 -625.685313 1102.104313 C -626.061329 1102.218475 -626.443411 1102.312658 -626.828524 1102.389718 C -627.213638 1102.466777 -627.601784 1102.523858 -627.992962 1102.56096 C -628.38414 1102.600917 -628.778351 1102.620895 -629.169529 1102.620895 L -1185.000604 1102.620895 C -1185.391782 1102.620895 -1185.785993 1102.600917 -1186.177172 1102.56096 C -1186.56835 1102.523858 -1186.956496 1102.466777 -1187.341609 1102.389718 C -1187.726723 1102.312658 -1188.108804 1102.218475 -1188.484821 1102.104313 C -1188.860837 1101.990151 -1189.227756 1101.856011 -1189.591643 1101.707601 C -1189.95553 1101.556336 -1190.310319 1101.387948 -1190.656012 1101.202435 C -1191.001704 1101.016922 -1191.341332 1100.817138 -1191.665798 1100.597377 C -1191.993296 1100.380469 -1192.308665 1100.146438 -1192.611904 1099.895282 C -1192.915143 1099.64698 -1193.206252 1099.384407 -1193.485232 1099.104711 C -1193.764212 1098.827868 -1194.02803 1098.536756 -1194.276686 1098.231373 C -1194.525342 1097.928844 -1194.758836 1097.612045 -1194.977168 1097.286684 C -1195.1955 1096.958468 -1195.39867 1096.624545 -1195.583646 1096.276351 C -1195.768622 1095.931012 -1195.935403 1095.574256 -1196.087023 1095.211792 C -1196.23561 1094.849328 -1196.369035 1094.478302 -1196.484266 1094.104422 C -1196.596465 1093.727688 -1196.693501 1093.345246 -1196.769311 1092.95995 C -1196.845121 1092.574654 -1196.902736 1092.186504 -1196.942157 1091.795499 C -1196.981578 1091.404495 -1196.999772 1091.013491 -1196.999772 1090.619632 L -1196.999772 325.489881 C -1196.999772 325.096022 -1196.981578 324.705018 -1196.942157 324.314014 C -1196.902736 323.92301 -1196.845121 323.534859 -1196.769311 323.149563 C -1196.693501 322.764267 -1196.596465 322.381825 -1196.484266 322.007945 C -1196.369035 321.631211 -1196.23561 321.260185 -1196.087023 320.897721 C -1195.935403 320.535257 -1195.768622 320.178501 -1195.583646 319.833162 C -1195.39867 319.487822 -1195.1955 319.151045 -1194.977168 318.82283 C -1194.758836 318.497468 -1194.525342 318.180669 -1194.276686 317.87814 C -1194.024998 317.572757 -1193.764212 317.281645 -1193.485232 317.004802 C -1193.206252 316.72796 -1192.915143 316.462534 -1192.611904 316.214232 C -1192.308665 315.96593 -1191.993296 315.731898 -1191.665798 315.512136 C -1191.341332 315.295229 -1191.004737 315.092591 -1190.656012 314.907079 C -1190.310319 314.721566 -1189.95553 314.553177 -1189.591643 314.404766 C -1189.227756 314.253502 -1188.860837 314.122216 -1188.484821 314.008054 C -1188.108804 313.893892 -1187.726723 313.796855 -1187.341609 313.719795 C -1186.956496 313.642736 -1186.56835 313.585655 -1186.177172 313.548553 C -1185.785993 313.508596 -1185.391782 313.488618 -1185.000604 313.488618 Z M -1185.000604 313.488618 " stroke="rgb(0%, 0%, 0%)" stroke-width="4" stroke-opacity="1" stroke-miterlimit="4"/></g><path stroke-linecap="butt" transform="matrix(1.288175, 0, 0, 1.368671, 1731.679811, -362.929982)" fill="none" stroke-linejoin="miter" d="M -673.020925 488.378843 L -1101.118624 488.378843 " stroke="rgb(0%, 0%, 0%)" stroke-width="2.375" stroke-opacity="1" stroke-miterlimit="4"/><path stroke-linecap="butt" transform="matrix(1.288175, 0, 0, 1.368671, 1731.679811, -362.929982)" fill="none" stroke-linejoin="miter" d="M -673.020925 439.189362 L -1101.118624 439.189362 " stroke="rgb(0%, 0%, 0%)" stroke-width="2.375" stroke-opacity="1" stroke-miterlimit="4"/><path stroke-linecap="butt" transform="matrix(1.288175, 0, 0, 1.368671, 1731.679811, -362.929982)" fill="none" stroke-linejoin="miter" d="M -673.020925 389.99988 L -1101.118624 389.99988 " stroke="rgb(0%, 0%, 0%)" stroke-width="2.375" stroke-opacity="1" stroke-miterlimit="4"/><g clip-path="url(#id11)"><path fill="rgb(100%, 44.309998%, 49.409485%)" d="M 389.941406 27.640625 L 1095.070312 159.742188 C 1095.566406 159.835938 1096.058594 159.957031 1096.546875 160.101562 C 1097.035156 160.246094 1097.515625 160.417969 1097.988281 160.609375 C 1098.457031 160.804688 1098.921875 161.023438 1099.371094 161.269531 C 1099.824219 161.511719 1100.261719 161.777344 1100.691406 162.066406 C 1101.117188 162.355469 1101.53125 162.667969 1101.929688 163 C 1102.324219 163.332031 1102.707031 163.683594 1103.074219 164.054688 C 1103.4375 164.425781 1103.789062 164.816406 1104.117188 165.226562 C 1104.445312 165.632812 1104.757812 166.058594 1105.046875 166.496094 C 1105.335938 166.9375 1105.605469 167.394531 1105.855469 167.863281 C 1106.101562 168.332031 1106.328125 168.8125 1106.535156 169.304688 C 1106.738281 169.796875 1106.917969 170.296875 1107.074219 170.808594 C 1107.234375 171.320312 1107.367188 171.839844 1107.476562 172.363281 C 1107.585938 172.890625 1107.671875 173.417969 1107.730469 173.953125 C 1107.792969 174.488281 1107.828125 175.023438 1107.839844 175.558594 C 1107.847656 176.097656 1107.835938 176.636719 1107.796875 177.171875 C 1107.757812 177.707031 1107.695312 178.242188 1107.605469 178.769531 L 936.457031 1210.074219 C 936.367188 1210.601562 936.257812 1211.125 936.121094 1211.644531 C 935.984375 1212.160156 935.824219 1212.671875 935.640625 1213.171875 C 935.457031 1213.675781 935.25 1214.164062 935.019531 1214.644531 C 934.792969 1215.125 934.542969 1215.589844 934.269531 1216.042969 C 934 1216.5 933.707031 1216.9375 933.394531 1217.359375 C 933.082031 1217.785156 932.75 1218.1875 932.398438 1218.578125 C 932.050781 1218.964844 931.683594 1219.335938 931.296875 1219.6875 C 930.914062 1220.035156 930.515625 1220.367188 930.097656 1220.675781 C 929.683594 1220.984375 929.257812 1221.269531 928.816406 1221.53125 C 928.375 1221.796875 927.921875 1222.035156 927.457031 1222.253906 C 926.996094 1222.46875 926.523438 1222.660156 926.042969 1222.828125 C 925.5625 1222.996094 925.074219 1223.140625 924.578125 1223.253906 C 924.085938 1223.371094 923.585938 1223.460938 923.082031 1223.527344 C 922.582031 1223.589844 922.074219 1223.628906 921.570312 1223.640625 C 921.0625 1223.652344 920.558594 1223.636719 920.054688 1223.597656 C 919.546875 1223.554688 919.046875 1223.488281 918.546875 1223.394531 L 213.417969 1091.292969 C 212.921875 1091.199219 212.429688 1091.078125 211.941406 1090.933594 C 211.453125 1090.789062 210.972656 1090.621094 210.5 1090.425781 C 210.03125 1090.230469 209.566406 1090.011719 209.117188 1089.769531 C 208.664062 1089.523438 208.226562 1089.257812 207.796875 1088.96875 C 207.371094 1088.679688 206.957031 1088.371094 206.5625 1088.039062 C 206.164062 1087.707031 205.78125 1087.355469 205.414062 1086.980469 C 205.050781 1086.609375 204.703125 1086.21875 204.371094 1085.8125 C 204.042969 1085.402344 203.730469 1084.980469 203.441406 1084.539062 C 203.152344 1084.097656 202.882812 1083.644531 202.632812 1083.175781 C 202.386719 1082.707031 202.160156 1082.226562 201.957031 1081.730469 C 201.75 1081.238281 201.570312 1080.738281 201.414062 1080.226562 C 201.253906 1079.714844 201.121094 1079.199219 201.011719 1078.671875 C 200.902344 1078.148438 200.816406 1077.617188 200.757812 1077.082031 C 200.695312 1076.550781 200.660156 1076.015625 200.648438 1075.476562 C 200.640625 1074.9375 200.652344 1074.402344 200.691406 1073.863281 C 200.730469 1073.328125 200.792969 1072.796875 200.878906 1072.265625 L 372.03125 40.964844 C 372.121094 40.433594 372.230469 39.910156 372.367188 39.390625 C 372.503906 38.875 372.664062 38.363281 372.847656 37.863281 C 373.03125 37.363281 373.238281 36.871094 373.46875 36.390625 C 373.695312 35.910156 373.945312 35.445312 374.21875 34.992188 C 374.492188 34.539062 374.78125 34.097656 375.09375 33.675781 C 375.40625 33.253906 375.738281 32.847656 376.089844 32.457031 C 376.4375 32.070312 376.804688 31.699219 377.191406 31.351562 C 377.574219 31 377.972656 30.671875 378.390625 30.363281 C 378.804688 30.054688 379.230469 29.765625 379.671875 29.503906 C 380.113281 29.238281 380.566406 29 381.03125 28.78125 C 381.492188 28.566406 381.964844 28.375 382.445312 28.207031 C 382.929688 28.039062 383.414062 27.898438 383.910156 27.78125 C 384.402344 27.664062 384.902344 27.574219 385.40625 27.511719 C 385.90625 27.445312 386.414062 27.40625 386.917969 27.394531 C 387.425781 27.382812 387.929688 27.398438 388.433594 27.441406 C 388.9375 27.480469 389.441406 27.546875 389.941406 27.640625 Z M 389.941406 27.640625 " fill-opacity="1" fill-rule="nonzero"/></g><g clip-path="url(#id12)"><path stroke-linecap="butt" transform="matrix(1.268605, 0.237667, -0.223689, 1.347878, 2200.660686, -337.235237)" fill="none" stroke-linejoin="miter" d="M -1337.998818 506.62924 L -782.168728 506.628464 C -781.777571 506.629046 -781.385931 506.649829 -780.994304 506.688004 C -780.602676 506.726178 -780.213552 506.78508 -779.827923 506.859089 C -779.444784 506.936435 -779.061658 507.031172 -778.687009 507.147689 C -778.309868 507.26087 -777.941699 507.393021 -777.576529 507.543089 C -777.214346 507.693684 -776.858148 507.862722 -776.511417 508.047921 C -776.167673 508.233646 -775.830409 508.435004 -775.502613 508.652521 C -775.177803 508.870566 -774.859474 509.104243 -774.556585 509.355133 C -774.254192 509.603213 -773.961265 509.867452 -773.68477 510.143283 C -773.40778 510.421924 -773.143738 510.714441 -772.893142 511.018023 C -772.645532 511.322132 -772.411366 511.637305 -772.190646 511.963544 C -771.972911 512.290309 -771.772104 512.625854 -771.587727 512.972991 C -771.400364 513.319602 -771.232915 513.67552 -771.082887 514.037408 C -770.932364 514.402107 -770.799759 514.769965 -770.687067 515.14713 C -770.571389 515.523769 -770.476615 515.904094 -770.399759 516.287579 C -770.325393 516.6744 -770.265959 517.063855 -770.227925 517.454184 C -770.189892 517.844514 -770.169775 518.238003 -770.171555 518.629557 L -770.168948 1283.761221 C -770.170727 1284.152774 -770.187934 1284.54415 -770.22654 1284.936401 C -770.265642 1285.325842 -770.323158 1285.715631 -770.400078 1286.100148 C -770.476503 1286.487475 -770.572828 1286.866719 -770.688062 1287.243501 C -770.80031 1287.619757 -770.932458 1287.987929 -771.084011 1288.350828 C -771.232082 1288.716012 -771.400549 1289.070301 -771.58593 1289.415981 C -771.770816 1289.764471 -771.973606 1290.09873 -772.192815 1290.42719 C -772.409533 1290.752313 -772.643166 1291.068826 -772.894207 1291.373918 C -773.142759 1291.675673 -773.405237 1291.968291 -773.685621 1292.246678 C -773.963019 1292.524539 -774.252349 1292.787115 -774.556599 1293.034933 C -774.860352 1293.285562 -775.176534 1293.518096 -775.504153 1293.738156 C -775.829281 1293.954879 -776.166341 1294.156317 -776.512348 1294.341945 C -776.858355 1294.527573 -777.213308 1294.697389 -777.578198 1294.845773 C -777.939607 1294.996442 -778.310457 1295.128488 -778.687267 1295.244197 C -779.061587 1295.356569 -779.444853 1295.45313 -779.828601 1295.529489 C -780.215336 1295.606375 -780.602554 1295.66306 -780.992746 1295.702881 C -781.386419 1295.740417 -781.777094 1295.760036 -782.171237 1295.759981 L -1338.001327 1295.760757 C -1338.392484 1295.760174 -1338.784124 1295.739391 -1339.175752 1295.701217 C -1339.567379 1295.663042 -1339.956007 1295.606951 -1340.342132 1295.530131 C -1340.725271 1295.452785 -1341.108397 1295.358049 -1341.482551 1295.244341 C -1341.860187 1295.12835 -1342.228356 1294.996199 -1342.593526 1294.846131 C -1342.955709 1294.695536 -1343.311412 1294.529308 -1343.655156 1294.343584 C -1344.001887 1294.158385 -1344.33915 1293.957027 -1344.667442 1293.736699 C -1344.992252 1293.518655 -1345.307595 1293.284451 -1345.612975 1293.036898 C -1345.915864 1292.786007 -1346.208294 1292.524579 -1346.485285 1292.245937 C -1346.762275 1291.967296 -1347.025821 1291.677589 -1347.276418 1291.374007 C -1347.524028 1291.069899 -1347.758193 1290.754726 -1347.976423 1290.42515 C -1348.197144 1290.098912 -1348.397951 1289.763366 -1348.582328 1289.416229 C -1348.769691 1289.069618 -1348.936645 1288.716511 -1349.087168 1288.351812 C -1349.237195 1287.989924 -1349.370296 1287.619255 -1349.482988 1287.24209 C -1349.598171 1286.868262 -1349.692945 1286.487937 -1349.770296 1286.101642 C -1349.844662 1285.71482 -1349.9036 1285.328176 -1349.94213 1284.935036 C -1349.980164 1284.544706 -1349.999784 1284.154028 -1350.001487 1283.76019 L -1350.000612 518.63081 C -1349.999328 518.236446 -1349.982121 517.84507 -1349.943515 517.452819 C -1349.904413 517.063378 -1349.846897 516.673589 -1349.769977 516.289072 C -1349.693057 515.904556 -1349.597227 515.522501 -1349.481993 515.145719 C -1349.369745 514.769464 -1349.237597 514.401291 -1349.086044 514.038392 C -1348.934491 513.675493 -1348.769506 513.318919 -1348.584125 512.973239 C -1348.398744 512.62756 -1348.196449 512.29049 -1347.97724 511.96203 C -1347.760522 511.636907 -1347.52689 511.320395 -1347.275352 511.018113 C -1347.027297 510.713548 -1346.764322 510.42374 -1346.483938 510.145353 C -1346.20654 509.867492 -1345.917706 509.602105 -1345.613457 509.354287 C -1345.309703 509.103658 -1344.993521 508.871124 -1344.665903 508.651064 C -1344.340775 508.434341 -1344.003714 508.232903 -1343.657707 508.047275 C -1343.308714 507.861121 -1342.956252 507.694642 -1342.591857 507.543447 C -1342.230449 507.392779 -1341.859598 507.260732 -1341.482292 507.147834 C -1341.108468 507.032651 -1340.725202 506.93609 -1340.341454 506.859731 C -1339.954719 506.782845 -1339.567501 506.72616 -1339.176814 506.68915 C -1338.786622 506.64933 -1338.392961 506.629184 -1337.998818 506.62924 Z M -1337.998818 506.62924 " stroke="rgb(0%, 0%, 0%)" stroke-width="4" stroke-opacity="1" stroke-miterlimit="4"/></g><g clip-path="url(#id13)"><path stroke-linecap="butt" transform="matrix(1.268605, 0.237667, -0.223689, 1.347878, 2200.660686, -337.235237)" fill="none" stroke-linejoin="miter" d="M -825.991374 681.519388 L -1254.09156 681.518869 " stroke="rgb(0%, 0%, 0%)" stroke-width="2.375" stroke-opacity="1" stroke-miterlimit="4"/></g><g clip-path="url(#id14)"><path stroke-linecap="butt" transform="matrix(1.268605, 0.237667, -0.223689, 1.347878, 2200.660686, -337.235237)" fill="none" stroke-linejoin="miter" d="M -825.990723 632.330262 L -1254.090908 632.329743 " stroke="rgb(0%, 0%, 0%)" stroke-width="2.375" stroke-opacity="1" stroke-miterlimit="4"/></g><path stroke-linecap="butt" transform="matrix(1.268605, 0.237667, -0.223689, 1.347878, 2200.660686, -337.235237)" fill="none" stroke-linejoin="miter" d="M -825.990071 583.141137 L -1254.090257 583.140617 " stroke="rgb(0%, 0%, 0%)" stroke-width="2.375" stroke-opacity="1" stroke-miterlimit="4"/></g></g></g></g><g clip-path="url(#id16)"><g mask="url(#id17)"><g transform="matrix(1, 0, 0, 1, 0, -0.000000000000115755)"><g clip-path="url(#id21)"><g clip-path="url(#id18)"><g clip-path="url(#id19)"><g clip-path="url(#id20)"><path fill="rgb(100%, 44.309998%, 49.409485%)" d="M -56.078125 273.851562 C -90.734375 317.546875 -106.601562 377.769531 -80.839844 419.09375 C -52.632812 472.652344 22.777344 480.734375 80.40625 439.09375 C 80.585938 438.957031 80.691406 438.636719 80.859375 438.511719 C 147.839844 396.332031 215.152344 331.320312 330.589844 318.988281 L 373.882812 314.390625 L 379.023438 352.988281 C 395.027344 468.039062 348.386719 548.757812 323.703125 623.996094 C 323.664062 624.175781 323.300781 624.378906 323.25 624.578125 C 296.921875 690.363281 323.246094 760.933594 381.589844 775.675781 C 381.769531 775.710938 381.867188 776 382.054688 776.039062 C 438.753906 793.964844 508.214844 744.96875 536.695312 684.316406 C 536.792969 684.121094 537.042969 683.9375 537.144531 683.738281 C 569.078125 623.773438 559.804688 547.082031 506.84375 525.5 C 480.714844 514.855469 464.738281 514.839844 453.230469 517.378906 C 447.472656 518.652344 443.1875 520.332031 439.902344 521.019531 C 436.617188 521.707031 425.238281 526.492188 425.238281 526.492188 C 425.507812 518.253906 426.089844 513.773438 426.796875 507.070312 C 427.65625 496.902344 431.4375 480.917969 436.769531 460.617188 C 447.339844 420.375 463.691406 361.714844 474.066406 287.746094 C 598.503906 236.308594 759.96875 169.296875 849.21875 132.265625 C 938.464844 95.234375 972.402344 12.589844 977.074219 -28.941406 L 491.210938 164.054688 L 559.128906 -357.867188 C 481.742188 -329.070312 446.929688 -254.527344 434.675781 -196.347656 C 414.8125 -61.257812 394.460938 73.933594 374.273438 209.070312 C 317.527344 233.644531 260.285156 262.859375 212.101562 289.308594 C 193.671875 299.425781 179.171875 307.019531 169.496094 310.332031 C 164.65625 311.992188 153.210938 316.808594 153.210938 316.808594 C 154.742188 305.449219 152.804688 290.632812 151.085938 279.628906 C 149.371094 268.625 145.402344 254.160156 132.058594 237.222656 C 96.765625 192.433594 21.164062 200.628906 -29.253906 246.152344 C -39.457031 254.59375 -48.375 265.355469 -56.085938 273.859375 Z M -23.78125 308.363281 C -9.402344 288.011719 11.757812 271.929688 32.382812 267.054688 C 63.285156 259.753906 87.792969 272.871094 99.632812 294.214844 C 111.476562 315.558594 110.492188 343.835938 90.515625 369.382812 L 90.066406 369.960938 C 72.882812 394.253906 44.238281 408.679688 17.738281 409.898438 C -8.761719 411.113281 -31.554688 399.585938 -38.117188 372.917969 L -38.585938 372.554688 C -45.480469 352.292969 -38.152344 328.707031 -23.78125 308.363281 Z M 384.753906 602.386719 C 386.074219 600.621094 387.445312 598.804688 388.378906 597.734375 C 408.3125 572.148438 435.484375 564.214844 459.035156 570.519531 C 482.589844 576.824219 501.40625 597.324219 501.8125 629.089844 C 502.078125 650.269531 491.726562 675.667969 475.496094 694.59375 C 459.265625 713.523438 438.179688 725.480469 416.855469 723.695312 L 415.9375 723.914062 C 389.355469 724 373.621094 705.699219 367.839844 680.828125 C 362.0625 655.953125 367.476562 625.238281 384.753906 602.386719 Z M 384.753906 602.386719 " fill-opacity="1" fill-rule="nonzero"/></g></g></g></g></g></g></g><g mask="url(#id22)"><g transform="matrix(1, 0, 0, 1, 910, 4)"><g clip-path="url(#id24)"><g clip-path="url(#id23)"><path fill="rgb(100%, 44.309998%, 49.409485%)" d="M 705.878906 223.765625 L 747.539062 457.636719 C 751.507812 479.933594 735.636719 497.273438 686.539062 509.664062 L 482.703125 560.203125 C 465.347656 579.527344 459.890625 631.554688 474.769531 635.019531 C 474.769531 635.019531 640.414062 619.660156 726.710938 612.230469 C 747.042969 610.246094 778.289062 581.011719 779.28125 559.707031 L 790.191406 276.78125 Z M 560.070312 504.707031 L 501.550781 211.871094 L 523.371094 206.917969 L 586.355469 491.328125 C 590.324219 508.671875 726.710938 481.914062 723.238281 463.085938 L 658.269531 96.425781 C 654.796875 77.101562 614.128906 3.765625 599.746094 5.75 L 522.875 17.640625 C 504.03125 20.613281 499.070312 41.921875 472.785156 46.875 C 449.476562 51.335938 418.726562 -3.664062 397.898438 0.792969 L 321.027344 18.136719 C 299.699219 23.089844 298.710938 70.660156 275.398438 77.101562 C 251.59375 84.035156 236.21875 64.21875 219.359375 69.171875 L 159.347656 86.515625 C 135.046875 93.449219 134.550781 149.441406 111.242188 159.351562 C 89.917969 168.269531 71.566406 152.910156 55.695312 163.316406 L 6.597656 195.523438 C -4.808594 202.457031 1.140625 282.234375 7.09375 297.59375 L 98.820312 553.265625 C 103.777344 567.140625 205.941406 542.859375 202.472656 529.480469 L 138.492188 291.648438 L 160.316406 286.691406 L 237.1875 569.121094 C 241.15625 584.480469 372.582031 556.734375 369.109375 541.375 C 347.78125 445.746094 305.628906 254.980469 305.628906 254.980469 L 327.449219 250.027344 L 395.394531 540.878906 C 399.359375 556.734375 564.015625 523.039062 560.046875 504.707031 Z M 560.070312 504.707031 " fill-opacity="1" fill-rule="nonzero"/></g></g></g></g></svg>