<svg xmlns="http://www.w3.org/2000/svg" xmlns:xlink="http://www.w3.org/1999/xlink" width="400" zoomAndPan="magnify" viewBox="0 0 300 299.999988" height="400" preserveAspectRatio="xMidYMid meet" version="1.0"><defs><clipPath id="id1"><path d="M 66.703125 33 L 223 33 L 223 265 L 66.703125 265 Z M 66.703125 33 " clip-rule="nonzero"/></clipPath><clipPath id="id2"><path d="M 66.703125 30 L 229 30 L 229 269 L 66.703125 269 Z M 66.703125 30 " clip-rule="nonzero"/></clipPath></defs><g clip-path="url(#id1)"><path fill="rgb(100%, 100%, 100%)" d="M 154.585938 229.09375 C 157.453125 233.0625 163.429688 244.550781 154.539062 256.03125 C 143.945312 269.710938 114.886719 267.789062 114.898438 240.050781 L 114.898438 234.742188 C 123.519531 215.164062 146.613281 216.503906 154.585938 229.09375 Z M 205.742188 57.585938 C 173.835938 23.457031 90.664062 21.289062 71.277344 81.816406 C 66.835938 95.675781 66.945312 110.871094 66.945312 110.871094 L 104.398438 110.324219 C 107.015625 86.132812 119.777344 69.652344 145.9375 73.484375 C 161.152344 75.710938 174.355469 87.769531 168.367188 103.066406 C 162.621094 117.742188 145.148438 113.710938 127.90625 134.972656 C 112.910156 153.46875 117.519531 192.515625 117.972656 205.25 L 152.320312 206.175781 C 152.753906 195.972656 154.253906 179.414062 157.921875 166.414062 C 162.484375 150.238281 182.351562 143.785156 195.234375 137.875 C 224.746094 124.328125 233.203125 86.964844 205.742188 57.585938 Z M 205.742188 57.585938 " fill-opacity="1" fill-rule="nonzero"/></g><g clip-path="url(#id2)"><path fill="rgb(100%, 44.309998%, 49.409485%)" d="M 161.960938 234.492188 C 163.128906 237.957031 163.746094 241.742188 163.445312 245.578125 C 163.175781 249.414062 161.921875 253.195312 160.023438 256.445312 L 159.285156 257.644531 L 158.492188 258.796875 C 158.226562 259.175781 157.890625 259.566406 157.589844 259.949219 L 157.121094 260.523438 C 156.957031 260.710938 156.785156 260.882812 156.617188 261.0625 C 155.289062 262.523438 153.746094 263.730469 152.136719 264.789062 L 150.902344 265.542969 C 150.480469 265.773438 150.054688 265.984375 149.625 266.199219 C 149.414062 266.304688 149.199219 266.417969 148.984375 266.511719 L 148.324219 266.789062 C 147.882812 266.960938 147.449219 267.15625 147 267.304688 C 145.210938 267.933594 143.363281 268.34375 141.507812 268.570312 C 137.214844 269.015625 132.851562 268.820312 128.683594 267.496094 C 126.609375 266.84375 124.574219 265.953125 122.742188 264.71875 C 120.910156 263.5 119.242188 262.019531 117.875 260.308594 C 117.257812 259.488281 116.402344 258.421875 115.578125 257.070312 C 115.355469 256.742188 115.164062 256.382812 114.96875 256.011719 C 114.773438 255.636719 114.574219 255.253906 114.367188 254.863281 C 114.167969 254.46875 114.011719 254.046875 113.832031 253.625 C 113.664062 253.199219 113.460938 252.773438 113.324219 252.324219 C 113.1875 251.871094 113.046875 251.414062 112.90625 250.953125 C 112.839844 250.722656 112.765625 250.488281 112.707031 250.253906 C 112.65625 250.015625 112.609375 249.78125 112.558594 249.539062 C 112.46875 249.0625 112.375 248.582031 112.28125 248.097656 C 112.203125 247.609375 112.171875 247.121094 112.121094 246.632812 C 112.085938 246.144531 112.023438 245.65625 112.023438 245.167969 C 112.023438 244.679688 112.03125 244.195312 112.042969 243.714844 C 112.042969 242.75 112.191406 241.808594 112.324219 240.894531 C 112.386719 240.5 112.304688 240.0625 113.296875 240.050781 C 114.367188 240.039062 114.769531 240.453125 114.859375 240.898438 C 115.011719 241.582031 115.121094 242.261719 115.300781 242.925781 C 115.476562 243.59375 115.628906 244.257812 115.738281 244.925781 C 116.183594 247.007812 116.796875 249.035156 117.648438 250.941406 C 118.53125 252.832031 119.664062 254.578125 121.027344 256.089844 C 123.75 259.128906 127.460938 261.101562 131.367188 261.769531 C 135.480469 262.480469 139.753906 262.070312 143.566406 260.609375 C 145.46875 259.878906 147.25 258.878906 148.789062 257.636719 L 149.359375 257.171875 L 149.890625 256.660156 C 150.0625 256.488281 150.25 256.332031 150.414062 256.148438 L 150.890625 255.601562 C 151.222656 255.25 151.492188 254.851562 151.769531 254.46875 C 152.054688 254.101562 152.3125 253.648438 152.574219 253.226562 C 154.820312 249.445312 155.722656 245.355469 155.113281 241.320312 C 154.824219 239.304688 154.1875 237.300781 153.261719 235.414062 C 152.804688 234.46875 152.273438 233.554688 151.691406 232.703125 C 151.546875 232.492188 151.398438 232.285156 151.25 232.085938 L 150.707031 231.371094 L 150.226562 230.734375 C 150.066406 230.535156 149.90625 230.378906 149.75 230.199219 C 147.863281 228.140625 145.339844 226.621094 142.578125 225.730469 C 139.8125 224.835938 136.828125 224.5625 133.929688 224.902344 C 132.699219 225.035156 130.996094 225.246094 129.140625 225.792969 C 127.289062 226.324219 125.289062 227.199219 123.496094 228.351562 C 121.703125 229.496094 120.140625 230.90625 119 232.117188 C 118.695312 232.40625 118.4375 232.699219 118.203125 232.964844 C 117.960938 233.230469 117.742188 233.46875 117.550781 233.679688 C 117.167969 234.097656 116.910156 234.410156 116.742188 234.535156 C 116.398438 234.800781 116.019531 235.355469 114.863281 234.710938 C 113.8125 234.121094 113.894531 233.386719 114.039062 232.875 L 114.242188 232.183594 L 114.5 231.511719 C 114.675781 231.0625 114.847656 230.609375 115.050781 230.167969 C 115.480469 229.300781 115.917969 228.425781 116.46875 227.609375 C 119.546875 222.710938 124.679688 218.828125 130.546875 217.289062 C 136.394531 215.683594 142.808594 216.25 148.410156 218.898438 C 150.011719 219.652344 151.554688 220.558594 152.988281 221.65625 C 154.421875 222.75 155.769531 224.003906 156.933594 225.441406 C 157.214844 225.789062 157.457031 226.128906 157.714844 226.476562 L 158.078125 226.960938 L 158.238281 227.175781 L 158.433594 227.449219 C 158.953125 228.175781 159.421875 228.917969 159.851562 229.679688 C 160.714844 231.203125 161.429688 232.808594 161.960938 234.492188 Z M 227.222656 108.90625 C 226.601562 111.789062 225.621094 114.59375 224.496094 117.328125 L 223.585938 119.351562 C 223.28125 120.027344 222.910156 120.671875 222.570312 121.332031 C 221.910156 122.660156 221.085938 123.894531 220.320312 125.164062 C 217.042969 130.101562 212.957031 134.519531 208.230469 138.046875 C 205.894531 139.859375 203.375 141.386719 200.800781 142.785156 C 199.507812 143.429688 198.140625 144.140625 196.949219 144.660156 C 195.730469 145.207031 194.519531 145.742188 193.332031 146.253906 C 188.578125 148.3125 184.027344 150.253906 179.839844 152.480469 C 178.0625 153.417969 176.003906 154.542969 173.90625 155.910156 C 172.855469 156.589844 171.792969 157.328125 170.777344 158.140625 C 169.75 158.949219 168.742188 159.820312 167.832031 160.773438 C 165.988281 162.675781 164.429688 164.855469 163.421875 167.367188 L 163.226562 167.835938 C 163.15625 168 163.089844 168.21875 163.023438 168.40625 L 162.621094 169.582031 C 162.339844 170.359375 162.105469 171.164062 161.847656 171.953125 C 161.347656 173.546875 160.878906 175.152344 160.445312 176.75 C 158.703125 183.144531 157.410156 189.355469 156.480469 194.191406 C 155.542969 199.035156 154.953125 202.511719 154.640625 203.554688 C 154.300781 204.671875 154.078125 206.5625 152.253906 206.128906 C 151.964844 206.058594 151.722656 205.941406 151.511719 205.792969 C 151.195312 205.945312 150.8125 206.023438 150.421875 206.046875 C 147.34375 206.226562 144.257812 206.445312 141.175781 206.449219 L 129.542969 206.441406 L 123.730469 206.425781 L 120.378906 206.40625 L 118.617188 206.394531 L 117.730469 206.386719 L 117.285156 206.382812 L 116.949219 206.382812 C 116.917969 206.375 116.863281 206.394531 116.859375 206.359375 C 116.753906 204.632812 116.628906 202.871094 116.492188 201.09375 L 116.113281 196.574219 C 115.875 193.660156 115.652344 190.738281 115.480469 187.8125 C 115.140625 181.957031 114.960938 176.070312 115.136719 170.152344 C 115.289062 164.953125 115.753906 159.726562 116.742188 154.53125 C 117.253906 151.933594 117.847656 149.339844 118.671875 146.78125 C 119.492188 144.226562 120.480469 141.695312 121.707031 139.242188 L 122.6875 137.421875 C 123.023438 136.820312 123.414062 136.242188 123.773438 135.648438 C 124.125 135.050781 124.558594 134.496094 124.964844 133.925781 L 125.585938 133.074219 L 126.214844 132.296875 C 127.875 130.203125 129.679688 128.199219 131.609375 126.3125 C 135.449219 122.523438 139.859375 119.238281 144.46875 116.511719 C 146.996094 114.996094 149.578125 113.667969 152.054688 112.378906 C 153.285156 111.738281 154.492188 111.101562 155.636719 110.453125 C 156.773438 109.804688 157.847656 109.136719 158.820312 108.4375 C 160.761719 107.03125 162.226562 105.496094 163.253906 103.644531 C 163.398438 103.425781 163.496094 103.167969 163.617188 102.933594 C 163.738281 102.691406 163.863281 102.457031 163.953125 102.195312 L 164.261719 101.429688 L 164.527344 100.617188 C 164.855469 99.535156 165.113281 98.449219 165.203125 97.378906 C 165.300781 96.308594 165.3125 95.25 165.167969 94.21875 C 165.023438 93.191406 164.765625 92.183594 164.398438 91.207031 C 163.652344 89.253906 162.410156 87.4375 160.839844 85.832031 C 157.675781 82.617188 153.214844 80.351562 148.546875 79.242188 C 147.679688 79.039062 146.804688 78.863281 145.925781 78.738281 L 145.261719 78.640625 C 145.039062 78.613281 144.796875 78.59375 144.5625 78.566406 L 143.15625 78.421875 C 141.289062 78.296875 139.425781 78.195312 137.617188 78.3125 C 133.976562 78.460938 130.519531 79.203125 127.40625 80.523438 C 124.316406 81.886719 121.578125 83.851562 119.273438 86.375 C 116.996094 88.921875 115.097656 91.957031 113.652344 95.332031 C 112.882812 97.09375 112.003906 99.332031 111.207031 101.960938 C 110.996094 102.613281 110.808594 103.296875 110.621094 104 C 110.417969 104.695312 110.253906 105.421875 110.074219 106.160156 L 110.003906 106.4375 L 109.96875 106.578125 L 109.953125 106.648438 C 109.953125 106.636719 109.925781 106.792969 109.917969 106.84375 C 109.851562 107.234375 109.789062 107.621094 109.722656 108.011719 C 109.59375 108.785156 109.464844 109.566406 109.335938 110.347656 C 109.09375 111.882812 108.851562 113.4375 108.605469 115.007812 C 106.820312 114.976562 105.015625 114.945312 103.199219 114.914062 C 102.316406 114.894531 101.429688 114.875 100.539062 114.859375 L 99.882812 114.84375 L 99.613281 114.835938 L 99.429688 114.828125 L 98.699219 114.789062 C 96.75 114.679688 94.800781 114.574219 92.878906 114.46875 C 89.039062 114.246094 85.328125 114.007812 82.019531 113.777344 C 75.398438 113.3125 70.390625 112.871094 69.1875 112.605469 C 68.257812 112.398438 66.710938 112.304688 66.980469 110.816406 C 67.050781 110.445312 67.210938 110.15625 67.433594 109.925781 C 67.214844 109.523438 67.109375 109.03125 67.085938 108.519531 C 66.890625 104.710938 66.851562 100.855469 67.246094 97.03125 C 67.898438 91.027344 69.007812 85.019531 70.921875 79.210938 C 71.886719 76.316406 73.003906 73.464844 74.324219 70.695312 C 75.65625 67.933594 77.164062 65.25 78.855469 62.675781 C 82.222656 57.511719 86.386719 52.859375 91.074219 48.8125 C 95.765625 44.753906 101.046875 41.386719 106.617188 38.636719 C 112.511719 35.746094 118.785156 33.636719 125.203125 32.269531 C 131.625 30.894531 138.183594 30.226562 144.746094 30.175781 C 151.3125 30.125 157.882812 30.707031 164.367188 31.875 C 170.847656 33.046875 177.25 34.796875 183.472656 37.1875 C 190.296875 39.832031 196.902344 43.324219 202.863281 47.925781 C 203.601562 48.507812 204.351562 49.078125 205.066406 49.699219 L 206.148438 50.617188 L 207.199219 51.574219 C 207.90625 52.203125 208.578125 52.882812 209.257812 53.550781 C 209.9375 54.222656 210.539062 54.914062 211.183594 55.597656 C 212.480469 56.941406 213.636719 58.421875 214.847656 59.859375 C 215.972656 61.371094 217.140625 62.847656 218.160156 64.449219 C 219.242188 66 220.179688 67.660156 221.136719 69.304688 L 222.457031 71.847656 C 222.902344 72.695312 223.261719 73.589844 223.664062 74.460938 C 225.199219 77.980469 226.429688 81.664062 227.277344 85.464844 C 228.941406 93.070312 229.007812 101.152344 227.222656 108.90625 Z M 214.296875 82.363281 C 211.8125 74.960938 207.410156 68.136719 201.851562 62.339844 C 196.484375 56.636719 189.710938 52.234375 182.402344 48.882812 C 178.730469 47.230469 174.9375 45.804688 171.046875 44.667969 C 169.105469 44.074219 167.132812 43.589844 165.160156 43.113281 C 163.175781 42.679688 161.1875 42.253906 159.175781 41.9375 C 151.152344 40.582031 142.96875 40.164062 134.847656 40.640625 C 125.453125 41.203125 116.191406 43.582031 107.871094 47.652344 C 99.535156 51.714844 92.199219 57.472656 86.304688 64.554688 C 84.910156 66.222656 83.191406 68.574219 81.488281 71.53125 C 79.777344 74.484375 78.089844 78.042969 76.628906 82.019531 C 75.867188 83.996094 75.25 86.078125 74.617188 88.238281 C 74.035156 90.414062 73.464844 92.652344 72.984375 94.941406 C 72.007812 99.515625 71.222656 104.25 70.601562 108.792969 C 70.589844 108.851562 70.582031 108.914062 70.578125 108.976562 C 74.347656 108.597656 78.132812 108.316406 81.921875 108.097656 C 85.664062 107.878906 89.40625 107.679688 93.152344 107.5 L 98.769531 107.238281 L 99.472656 107.207031 C 99.621094 107.203125 99.621094 107.199219 99.683594 107.195312 L 99.832031 107.183594 L 100.410156 107.132812 C 100.785156 107.09375 101.175781 107.085938 101.503906 107.027344 C 101.53125 106.59375 101.546875 106.171875 101.589844 105.769531 L 101.648438 105.160156 L 101.90625 103.574219 C 102.277344 101.460938 102.714844 99.347656 103.316406 97.257812 C 104.476562 93.074219 106.15625 88.945312 108.511719 85.09375 C 110.898438 81.28125 113.984375 77.722656 117.808594 75.042969 C 119.710938 73.695312 121.757812 72.554688 123.890625 71.636719 C 126.027344 70.71875 128.253906 70.070312 130.492188 69.589844 C 134.21875 68.824219 137.992188 68.566406 141.675781 68.726562 C 142.59375 68.789062 143.523438 68.816406 144.433594 68.910156 L 145.796875 69.050781 C 146.25 69.097656 146.707031 69.144531 147.183594 69.222656 C 149.074219 69.492188 150.945312 69.886719 152.785156 70.433594 C 156.453125 71.523438 160.007812 73.148438 163.246094 75.417969 C 166.46875 77.679688 169.40625 80.625 171.46875 84.300781 C 172.550781 86.195312 173.398438 88.269531 173.925781 90.441406 C 174.453125 92.613281 174.648438 94.875 174.527344 97.085938 C 174.40625 99.300781 173.972656 101.460938 173.320312 103.492188 C 172.6875 105.5 171.769531 107.574219 170.519531 109.46875 C 169.28125 111.371094 167.714844 113.066406 166.050781 114.464844 C 164.390625 115.871094 162.652344 117 160.964844 117.980469 C 157.574219 119.9375 154.378906 121.398438 151.410156 122.992188 C 148.433594 124.566406 145.664062 126.226562 143.082031 128.121094 C 140.492188 129.992188 138.101562 132.101562 135.863281 134.40625 C 135.296875 134.96875 134.757812 135.570312 134.214844 136.164062 C 133.664062 136.75 133.15625 137.386719 132.625 137.996094 L 132.230469 138.457031 L 131.898438 138.894531 L 131.230469 139.757812 C 130.800781 140.347656 130.402344 140.980469 129.984375 141.59375 C 128.40625 144.148438 127.097656 147.007812 126 150.027344 C 124.722656 153.523438 123.832031 157.261719 123.21875 161.085938 C 122.597656 164.910156 122.222656 168.820312 122.015625 172.761719 C 121.601562 180.65625 121.804688 188.640625 121.960938 196.730469 C 121.976562 197.246094 121.988281 197.808594 122.007812 198.410156 C 122.015625 198.714844 122.027344 199.027344 122.039062 199.351562 C 122.046875 199.515625 122.054688 199.679688 122.058594 199.847656 C 122.0625 199.902344 122.0625 199.898438 122.0625 199.910156 L 122.058594 199.9375 L 122.058594 199.992188 C 122.054688 200.3125 122.050781 200.667969 122.046875 201.058594 C 122.277344 201.089844 122.546875 201.105469 122.828125 201.132812 L 123.042969 201.152344 L 123.15625 201.160156 L 123.210938 201.164062 L 123.40625 201.175781 C 124.035156 201.203125 124.675781 201.230469 125.324219 201.257812 C 127.921875 201.375 130.671875 201.511719 133.492188 201.683594 C 139.039062 202.015625 144.863281 202.480469 150.355469 203.171875 C 150.332031 202.921875 150.316406 202.675781 150.3125 202.441406 C 150.164062 197.390625 150.328125 192.320312 150.734375 187.257812 C 151.039062 183.527344 151.453125 179.796875 152.015625 176.066406 L 152.46875 173.265625 L 152.988281 170.464844 C 153.183594 169.53125 153.367188 168.597656 153.578125 167.664062 L 153.910156 166.265625 C 154.023438 165.796875 154.117188 165.351562 154.28125 164.816406 C 154.847656 162.753906 155.648438 160.734375 156.679688 158.859375 C 157.703125 156.976562 158.925781 155.226562 160.273438 153.625 C 162.976562 150.414062 166.140625 147.777344 169.421875 145.550781 C 176.003906 141.089844 183.0625 138.050781 189.71875 135.039062 C 193.128906 133.519531 196.003906 132.105469 198.785156 130.257812 C 201.542969 128.429688 204.078125 126.296875 206.3125 123.902344 C 211.398438 118.4375 214.808594 111.550781 216.042969 104.289062 C 217.324219 97.027344 216.613281 89.488281 214.296875 82.363281 Z M 214.296875 82.363281 " fill-opacity="1" fill-rule="nonzero"/></g></svg>