<svg xmlns="http://www.w3.org/2000/svg" xmlns:xlink="http://www.w3.org/1999/xlink" width="400" zoomAndPan="magnify" viewBox="0 0 300 299.999988" height="400" preserveAspectRatio="xMidYMid meet" version="1.0"><defs><clipPath id="id1"><path d="M 47.261719 36.761719 L 222 36.761719 L 222 263.261719 L 47.261719 263.261719 Z M 47.261719 36.761719 " clip-rule="nonzero"/></clipPath><clipPath id="id2"><path d="M 78 36.761719 L 252.761719 36.761719 L 252.761719 263.261719 L 78 263.261719 Z M 78 36.761719 " clip-rule="nonzero"/></clipPath></defs><path fill="rgb(100%, 44.309998%, 49.409485%)" d="M 50.660156 62.28125 L 180.855469 37.894531 C 181.226562 37.824219 181.597656 37.832031 181.96875 37.921875 C 182.335938 38.007812 182.675781 38.164062 182.988281 38.394531 C 183.296875 38.628906 183.554688 38.910156 183.757812 39.25 C 183.960938 39.589844 184.09375 39.957031 184.160156 40.351562 L 215.761719 230.726562 C 215.828125 231.125 215.820312 231.519531 215.738281 231.910156 C 215.65625 232.304688 215.507812 232.664062 215.289062 232.992188 C 215.070312 233.324219 214.804688 233.597656 214.484375 233.8125 C 214.164062 234.027344 213.820312 234.171875 213.445312 234.242188 L 83.253906 258.625 C 82.882812 258.695312 82.511719 258.6875 82.140625 258.601562 C 81.769531 258.511719 81.429688 258.355469 81.121094 258.125 C 80.8125 257.894531 80.554688 257.609375 80.351562 257.269531 C 80.148438 256.929688 80.011719 256.5625 79.949219 256.167969 L 48.347656 65.792969 C 48.28125 65.394531 48.289062 65.003906 48.371094 64.609375 C 48.453125 64.21875 48.601562 63.855469 48.820312 63.527344 C 49.035156 63.199219 49.304688 62.925781 49.625 62.707031 C 49.941406 62.492188 50.289062 62.351562 50.660156 62.28125 Z M 50.660156 62.28125 " fill-opacity="1" fill-rule="nonzero"/><g clip-path="url(#id1)"><path stroke-linecap="butt" transform="matrix(0.234231, -0.0438726, 0.0413012, 0.248814, 278.91517, -18.914398)" fill="none" stroke-linejoin="miter" d="M -1000.908438 149.843973 L -445.0665 149.84193 C -443.48164 149.838793 -441.950475 150.140177 -440.475691 150.76131 C -439.014396 151.364365 -437.714645 152.221526 -436.579123 153.348019 C -435.46246 154.486887 -434.588276 155.771393 -433.980801 157.244364 C -433.373326 158.717334 -433.075777 160.245553 -433.07198 161.831872 L -433.069034 926.963167 C -433.067922 928.564712 -433.371432 930.096844 -433.979564 931.559564 C -434.590381 933.03751 -435.451994 934.329938 -436.583261 935.449223 C -437.717213 936.583734 -439.004983 937.455631 -440.478917 938.059209 C -441.952851 938.662787 -443.475503 938.975184 -445.076538 938.975469 L -1000.899616 938.965138 C -1002.484476 938.968276 -1004.015641 938.666891 -1005.49311 938.060985 C -1006.967895 937.439852 -1008.267646 936.582691 -1009.386994 935.459049 C -1010.506342 934.335407 -1011.37784 933.035675 -1011.985315 931.562705 C -1012.59279 930.089734 -1012.906513 928.558663 -1012.894136 926.975196 L -1012.897082 161.843901 C -1012.898194 160.242356 -1012.597369 158.72545 -1011.986552 157.247504 C -1011.37842 155.784784 -1010.514122 154.47713 -1009.382855 153.357845 C -1008.267762 152.235708 -1006.963819 151.366664 -1005.4872 150.747859 C -1004.02944 150.141429 -1002.493298 149.847111 -1000.908438 149.843973 Z M -1000.908438 149.843973 " stroke="rgb(0%, 0%, 0%)" stroke-width="4" stroke-opacity="1" stroke-miterlimit="4"/></g><path stroke-linecap="butt" transform="matrix(0.234231, -0.0438726, 0.0413012, 0.248814, 278.91517, -18.914398)" fill="none" stroke-linejoin="miter" d="M -488.825172 767.437134 L -916.92128 767.435433 " stroke="rgb(0%, 0%, 0%)" stroke-width="2.375" stroke-opacity="1" stroke-miterlimit="4"/><path stroke-linecap="butt" transform="matrix(0.234231, -0.0438726, 0.0413012, 0.248814, 278.91517, -18.914398)" fill="none" stroke-linejoin="miter" d="M -488.824283 718.250761 L -916.936565 718.246208 " stroke="rgb(0%, 0%, 0%)" stroke-width="2.375" stroke-opacity="1" stroke-miterlimit="4"/><path stroke-linecap="butt" transform="matrix(0.234231, -0.0438726, 0.0413012, 0.248814, 278.91517, -18.914398)" fill="none" stroke-linejoin="miter" d="M -488.823393 669.064388 L -916.935676 669.059835 " stroke="rgb(0%, 0%, 0%)" stroke-width="2.375" stroke-opacity="1" stroke-miterlimit="4"/><path stroke-linecap="butt" transform="matrix(0.234231, -0.0438726, 0.0413012, 0.248814, 278.91517, -18.914398)" fill="none" stroke-linejoin="miter" d="M -488.838678 619.875163 L -916.934786 619.873462 " stroke="rgb(0%, 0%, 0%)" stroke-width="2.375" stroke-opacity="1" stroke-miterlimit="4"/><path stroke-linecap="butt" transform="matrix(0.234231, -0.0438726, 0.0413012, 0.248814, 278.91517, -18.914398)" fill="none" stroke-linejoin="miter" d="M -488.835104 570.673564 L -916.933897 570.687089 " stroke="rgb(0%, 0%, 0%)" stroke-width="2.375" stroke-opacity="1" stroke-miterlimit="4"/><path stroke-linecap="butt" transform="matrix(0.234231, -0.0438726, 0.0413012, 0.248814, 278.91517, -18.914398)" fill="none" stroke-linejoin="miter" d="M -488.834215 521.487191 L -916.930323 521.485489 " stroke="rgb(0%, 0%, 0%)" stroke-width="2.375" stroke-opacity="1" stroke-miterlimit="4"/><path stroke-linecap="butt" transform="matrix(0.234231, -0.0438726, 0.0413012, 0.248814, 278.91517, -18.914398)" fill="none" stroke-linejoin="miter" d="M -488.833326 472.300818 L -916.929434 472.299116 " stroke="rgb(0%, 0%, 0%)" stroke-width="2.375" stroke-opacity="1" stroke-miterlimit="4"/><path stroke-linecap="butt" transform="matrix(0.234231, -0.0438726, 0.0413012, 0.248814, 278.91517, -18.914398)" fill="none" stroke-linejoin="miter" d="M -488.832437 423.114445 L -916.928545 423.112743 " stroke="rgb(0%, 0%, 0%)" stroke-width="2.375" stroke-opacity="1" stroke-miterlimit="4"/><path stroke-linecap="butt" transform="matrix(0.234231, -0.0438726, 0.0413012, 0.248814, 278.91517, -18.914398)" fill="none" stroke-linejoin="miter" d="M -488.828863 373.912846 L -916.927656 373.92637 " stroke="rgb(0%, 0%, 0%)" stroke-width="2.375" stroke-opacity="1" stroke-miterlimit="4"/><path stroke-linecap="butt" transform="matrix(0.234231, -0.0438726, 0.0413012, 0.248814, 278.91517, -18.914398)" fill="none" stroke-linejoin="miter" d="M -488.827974 324.726473 L -916.924082 324.724771 " stroke="rgb(0%, 0%, 0%)" stroke-width="2.375" stroke-opacity="1" stroke-miterlimit="4"/><path stroke-linecap="butt" transform="matrix(0.234231, -0.0438726, 0.0413012, 0.248814, 278.91517, -18.914398)" fill="none" stroke-linejoin="miter" d="M -488.827085 275.5401 L -916.923193 275.538398 " stroke="rgb(0%, 0%, 0%)" stroke-width="2.375" stroke-opacity="1" stroke-miterlimit="4"/><path stroke-linecap="butt" transform="matrix(0.234231, -0.0438726, 0.0413012, 0.248814, 278.91517, -18.914398)" fill="none" stroke-linejoin="miter" d="M -488.826195 226.353726 L -916.922304 226.352025 " stroke="rgb(0%, 0%, 0%)" stroke-width="2.375" stroke-opacity="1" stroke-miterlimit="4"/><path stroke-linecap="butt" transform="matrix(0.234231, -0.0438726, 0.0413012, 0.248814, 278.91517, -18.914398)" fill="none" stroke-linejoin="miter" d="M -488.829635 865.825107 L -916.925743 865.823405 " stroke="rgb(0%, 0%, 0%)" stroke-width="2.375" stroke-opacity="1" stroke-miterlimit="4"/><path stroke-linecap="butt" transform="matrix(0.234231, -0.0438726, 0.0413012, 0.248814, 278.91517, -18.914398)" fill="none" stroke-linejoin="miter" d="M -488.826061 816.623508 L -916.924854 816.637032 " stroke="rgb(0%, 0%, 0%)" stroke-width="2.375" stroke-opacity="1" stroke-miterlimit="4"/><path stroke-linecap="butt" transform="matrix(0.237844, 0, 0, 0.252652, 366.845309, -30.632187)" fill-opacity="1" fill="rgb(100%, 44.309998%, 49.409485%)" fill-rule="nonzero" stroke-linejoin="miter" d="M -1184.998925 313.484527 L -629.176539 313.484527 C -627.583454 313.484527 -626.03964 313.793747 -624.577943 314.396725 C -623.099823 315.015165 -621.802363 315.88098 -620.685561 317.009632 C -619.552335 318.122823 -618.698311 319.421546 -618.090639 320.89034 C -617.466544 322.374595 -617.17092 323.905233 -617.17092 325.497715 L -617.17092 1090.615647 C -617.17092 1092.208129 -617.466544 1093.738767 -618.090639 1095.207561 C -618.698311 1096.676355 -619.552335 1097.975078 -620.685561 1099.10373 C -621.802363 1100.232382 -623.099823 1101.098197 -624.577943 1101.701176 C -626.056063 1102.319615 -627.583454 1102.613374 -629.176539 1102.613374 L -1184.998925 1102.613374 C -1186.59201 1102.613374 -1188.119401 1102.319615 -1189.597521 1101.701176 C -1191.059217 1101.098197 -1192.356678 1100.232382 -1193.489904 1099.10373 C -1194.606705 1097.975078 -1195.477154 1096.676355 -1196.084825 1095.207561 C -1196.692497 1093.738767 -1197.004544 1092.208129 -1197.004544 1090.615647 L -1197.004544 325.497715 C -1197.004544 323.905233 -1196.692497 322.374595 -1196.084825 320.89034 C -1195.477154 319.421546 -1194.606705 318.122823 -1193.489904 317.009632 C -1192.356678 315.88098 -1191.059217 315.015165 -1189.597521 314.396725 C -1188.119401 313.793747 -1186.59201 313.484527 -1184.998925 313.484527 Z M -1184.998925 313.484527 " stroke="rgb(0%, 0%, 0%)" stroke-width="4" stroke-opacity="1" stroke-miterlimit="4"/><path stroke-linecap="butt" transform="matrix(0.237844, 0, 0, 0.252652, 366.845309, -30.632187)" fill="none" stroke-linejoin="miter" d="M -673.027432 931.089169 L -1101.123828 931.089169 " stroke="rgb(0%, 0%, 0%)" stroke-width="2.375" stroke-opacity="1" stroke-miterlimit="4"/><path stroke-linecap="butt" transform="matrix(0.237844, 0, 0, 0.252652, 366.845309, -30.632187)" fill="none" stroke-linejoin="miter" d="M -673.027432 881.892304 L -1101.123828 881.892304 " stroke="rgb(0%, 0%, 0%)" stroke-width="2.375" stroke-opacity="1" stroke-miterlimit="4"/><path stroke-linecap="butt" transform="matrix(0.237844, 0, 0, 0.252652, 366.845309, -30.632187)" fill="none" stroke-linejoin="miter" d="M -673.027432 832.7109 L -1101.123828 832.7109 " stroke="rgb(0%, 0%, 0%)" stroke-width="2.375" stroke-opacity="1" stroke-miterlimit="4"/><path stroke-linecap="butt" transform="matrix(0.237844, 0, 0, 0.252652, 366.845309, -30.632187)" fill="none" stroke-linejoin="miter" d="M -673.027432 783.514035 L -1101.123828 783.514035 " stroke="rgb(0%, 0%, 0%)" stroke-width="2.375" stroke-opacity="1" stroke-miterlimit="4"/><path stroke-linecap="butt" transform="matrix(0.237844, 0, 0, 0.252652, 366.845309, -30.632187)" fill="none" stroke-linejoin="miter" d="M -673.027432 734.332631 L -1101.123828 734.332631 " stroke="rgb(0%, 0%, 0%)" stroke-width="2.375" stroke-opacity="1" stroke-miterlimit="4"/><path stroke-linecap="butt" transform="matrix(0.237844, 0, 0, 0.252652, 366.845309, -30.632187)" fill="none" stroke-linejoin="miter" d="M -673.027432 685.135766 L -1101.123828 685.135766 " stroke="rgb(0%, 0%, 0%)" stroke-width="2.375" stroke-opacity="1" stroke-miterlimit="4"/><path stroke-linecap="butt" transform="matrix(0.237844, 0, 0, 0.252652, 366.845309, -30.632187)" fill="none" stroke-linejoin="miter" d="M -673.027432 635.954362 L -1101.123828 635.954362 " stroke="rgb(0%, 0%, 0%)" stroke-width="2.375" stroke-opacity="1" stroke-miterlimit="4"/><path stroke-linecap="butt" transform="matrix(0.237844, 0, 0, 0.252652, 366.845309, -30.632187)" fill="none" stroke-linejoin="miter" d="M -673.027432 586.757497 L -1101.123828 586.757497 " stroke="rgb(0%, 0%, 0%)" stroke-width="2.375" stroke-opacity="1" stroke-miterlimit="4"/><path stroke-linecap="butt" transform="matrix(0.237844, 0, 0, 0.252652, 366.845309, -30.632187)" fill="none" stroke-linejoin="miter" d="M -673.027432 537.576093 L -1101.123828 537.576093 " stroke="rgb(0%, 0%, 0%)" stroke-width="2.375" stroke-opacity="1" stroke-miterlimit="4"/><path stroke-linecap="butt" transform="matrix(0.237844, 0, 0, 0.252652, 366.845309, -30.632187)" fill="none" stroke-linejoin="miter" d="M -673.027432 488.379228 L -1101.123828 488.379228 " stroke="rgb(0%, 0%, 0%)" stroke-width="2.375" stroke-opacity="1" stroke-miterlimit="4"/><path stroke-linecap="butt" transform="matrix(0.237844, 0, 0, 0.252652, 366.845309, -30.632187)" fill="none" stroke-linejoin="miter" d="M -673.027432 439.182362 L -1101.123828 439.182362 " stroke="rgb(0%, 0%, 0%)" stroke-width="2.375" stroke-opacity="1" stroke-miterlimit="4"/><path stroke-linecap="butt" transform="matrix(0.237844, 0, 0, 0.252652, 366.845309, -30.632187)" fill="none" stroke-linejoin="miter" d="M -673.027432 390.000958 L -1101.123828 390.000958 " stroke="rgb(0%, 0%, 0%)" stroke-width="2.375" stroke-opacity="1" stroke-miterlimit="4"/><path stroke-linecap="butt" transform="matrix(0.237844, 0, 0, 0.252652, 366.845309, -30.632187)" fill="none" stroke-linejoin="miter" d="M -673.027432 1029.49836 L -1101.123828 1029.49836 " stroke="rgb(0%, 0%, 0%)" stroke-width="2.375" stroke-opacity="1" stroke-miterlimit="4"/><path stroke-linecap="butt" transform="matrix(0.237844, 0, 0, 0.252652, 366.845309, -30.632187)" fill="none" stroke-linejoin="miter" d="M -673.027432 980.286034 L -1101.123828 980.286034 " stroke="rgb(0%, 0%, 0%)" stroke-width="2.375" stroke-opacity="1" stroke-miterlimit="4"/><path fill="rgb(100%, 44.309998%, 49.409485%)" d="M 119.109375 41.464844 L 249.304688 65.851562 C 249.675781 65.921875 250.023438 66.0625 250.339844 66.28125 C 250.660156 66.496094 250.929688 66.769531 251.144531 67.097656 C 251.363281 67.429688 251.511719 67.789062 251.59375 68.179688 C 251.675781 68.574219 251.683594 68.96875 251.617188 69.363281 L 220.019531 259.738281 C 219.953125 260.132812 219.816406 260.503906 219.613281 260.839844 C 219.410156 261.179688 219.152344 261.464844 218.84375 261.695312 C 218.535156 261.925781 218.195312 262.085938 217.824219 262.171875 C 217.457031 262.257812 217.085938 262.269531 216.710938 262.199219 L 86.519531 237.8125 C 86.144531 237.742188 85.800781 237.597656 85.480469 237.382812 C 85.160156 237.167969 84.894531 236.894531 84.675781 236.566406 C 84.460938 236.234375 84.308594 235.875 84.226562 235.484375 C 84.144531 235.089844 84.136719 234.695312 84.203125 234.300781 L 115.804688 43.925781 C 115.871094 43.53125 116.003906 43.160156 116.207031 42.824219 C 116.410156 42.484375 116.667969 42.199219 116.976562 41.96875 C 117.289062 41.738281 117.628906 41.578125 117.996094 41.492188 C 118.367188 41.40625 118.738281 41.394531 119.109375 41.464844 Z M 119.109375 41.464844 " fill-opacity="1" fill-rule="nonzero"/><g clip-path="url(#id2)"><path stroke-linecap="butt" transform="matrix(0.234231, 0.0438726, -0.0413012, 0.248814, 453.436385, -25.889024)" fill="none" stroke-linejoin="miter" d="M -1338.007071 506.626763 L -782.165133 506.628807 C -780.580273 506.631944 -779.044131 506.926263 -777.583686 507.547919 C -776.109752 508.151497 -774.805809 509.020541 -773.690716 510.142678 C -772.556764 511.277189 -771.695151 512.569618 -771.087019 514.032337 C -770.476202 515.510283 -770.172692 517.042416 -770.176488 518.628735 L -770.163261 1283.757178 C -770.167057 1285.343496 -770.478096 1286.889793 -771.088255 1288.347538 C -771.695731 1289.820508 -772.567229 1291.120241 -773.686577 1292.243882 C -774.805925 1293.367524 -776.102991 1294.239911 -777.58046 1294.845818 C -779.041756 1295.448873 -780.570236 1295.765483 -782.17127 1295.765198 L -1337.997033 1295.760302 C -1339.598067 1295.760017 -1341.12072 1295.44762 -1342.594654 1294.844042 C -1344.068588 1294.240464 -1345.356357 1293.368568 -1346.487625 1292.249283 C -1347.605403 1291.11192 -1348.48319 1289.822343 -1349.091322 1288.359623 C -1349.702139 1286.881678 -1350.005649 1285.349545 -1350.001852 1283.763226 L -1349.998906 518.631931 C -1349.995109 517.045613 -1349.700245 515.502168 -1349.090085 514.044423 C -1348.48261 512.571452 -1347.611111 511.27172 -1346.491763 510.148079 C -1345.356241 509.021585 -1344.059175 508.149198 -1342.59788 507.546143 C -1341.120411 506.940236 -1339.591931 506.623626 -1338.007071 506.626763 Z M -1338.007071 506.626763 " stroke="rgb(0%, 0%, 0%)" stroke-width="4" stroke-opacity="1" stroke-miterlimit="4"/></g><path stroke-linecap="butt" transform="matrix(0.234231, 0.0438726, -0.0413012, 0.248814, 453.436385, -25.889024)" fill="none" stroke-linejoin="miter" d="M -825.997044 1124.204587 L -1254.093152 1124.206289 " stroke="rgb(0%, 0%, 0%)" stroke-width="2.375" stroke-opacity="1" stroke-miterlimit="4"/><path stroke-linecap="butt" transform="matrix(0.234231, 0.0438726, -0.0413012, 0.248814, 453.436385, -25.889024)" fill="none" stroke-linejoin="miter" d="M -825.984444 1075.000136 L -1254.096726 1075.00469 " stroke="rgb(0%, 0%, 0%)" stroke-width="2.375" stroke-opacity="1" stroke-miterlimit="4"/><path stroke-linecap="butt" transform="matrix(0.234231, 0.0438726, -0.0413012, 0.248814, 453.436385, -25.889024)" fill="none" stroke-linejoin="miter" d="M -825.988083 1025.892746 L -1254.084191 1025.894447 " stroke="rgb(0%, 0%, 0%)" stroke-width="2.375" stroke-opacity="1" stroke-miterlimit="4"/><path stroke-linecap="butt" transform="matrix(0.234231, 0.0438726, -0.0413012, 0.248814, 453.436385, -25.889024)" fill="none" stroke-linejoin="miter" d="M -825.997027 976.660694 L -1254.093135 976.662396 " stroke="rgb(0%, 0%, 0%)" stroke-width="2.375" stroke-opacity="1" stroke-miterlimit="4"/><path stroke-linecap="butt" transform="matrix(0.234231, 0.0438726, -0.0413012, 0.248814, 453.436385, -25.889024)" fill="none" stroke-linejoin="miter" d="M -825.981742 927.471469 L -1254.094024 927.476023 " stroke="rgb(0%, 0%, 0%)" stroke-width="2.375" stroke-opacity="1" stroke-miterlimit="4"/><path stroke-linecap="butt" transform="matrix(0.234231, 0.0438726, -0.0413012, 0.248814, 453.436385, -25.889024)" fill="none" stroke-linejoin="miter" d="M -825.982631 878.285096 L -1254.097598 878.274424 " stroke="rgb(0%, 0%, 0%)" stroke-width="2.375" stroke-opacity="1" stroke-miterlimit="4"/><path stroke-linecap="butt" transform="matrix(0.234231, 0.0438726, -0.0413012, 0.248814, 453.436385, -25.889024)" fill="none" stroke-linejoin="miter" d="M -825.986205 829.083497 L -1254.098487 829.08805 " stroke="rgb(0%, 0%, 0%)" stroke-width="2.375" stroke-opacity="1" stroke-miterlimit="4"/><path stroke-linecap="butt" transform="matrix(0.234231, 0.0438726, -0.0413012, 0.248814, 453.436385, -25.889024)" fill="none" stroke-linejoin="miter" d="M -825.987094 779.897124 L -1254.083202 779.898825 " stroke="rgb(0%, 0%, 0%)" stroke-width="2.375" stroke-opacity="1" stroke-miterlimit="4"/><path stroke-linecap="butt" transform="matrix(0.234231, 0.0438726, -0.0413012, 0.248814, 453.436385, -25.889024)" fill="none" stroke-linejoin="miter" d="M -825.987983 730.710751 L -1254.084092 730.712452 " stroke="rgb(0%, 0%, 0%)" stroke-width="2.375" stroke-opacity="1" stroke-miterlimit="4"/><path stroke-linecap="butt" transform="matrix(0.234231, 0.0438726, -0.0413012, 0.248814, 453.436385, -25.889024)" fill="none" stroke-linejoin="miter" d="M -825.988872 681.524378 L -1254.084981 681.526079 " stroke="rgb(0%, 0%, 0%)" stroke-width="2.375" stroke-opacity="1" stroke-miterlimit="4"/><path stroke-linecap="butt" transform="matrix(0.234231, 0.0438726, -0.0413012, 0.248814, 453.436385, -25.889024)" fill="none" stroke-linejoin="miter" d="M -825.992446 632.322778 L -1254.088555 632.32448 " stroke="rgb(0%, 0%, 0%)" stroke-width="2.375" stroke-opacity="1" stroke-miterlimit="4"/><path stroke-linecap="butt" transform="matrix(0.234231, 0.0438726, -0.0413012, 0.248814, 453.436385, -25.889024)" fill="none" stroke-linejoin="miter" d="M -825.993336 583.136405 L -1254.089444 583.138107 " stroke="rgb(0%, 0%, 0%)" stroke-width="2.375" stroke-opacity="1" stroke-miterlimit="4"/><path stroke-linecap="butt" transform="matrix(0.234231, 0.0438726, -0.0413012, 0.248814, 453.436385, -25.889024)" fill="none" stroke-linejoin="miter" d="M -825.989896 1222.607786 L -1254.088689 1222.594261 " stroke="rgb(0%, 0%, 0%)" stroke-width="2.375" stroke-opacity="1" stroke-miterlimit="4"/><path stroke-linecap="butt" transform="matrix(0.234231, 0.0438726, -0.0413012, 0.248814, 453.436385, -25.889024)" fill="none" stroke-linejoin="miter" d="M -825.99347 1173.406186 L -1254.092263 1173.392662 " stroke="rgb(0%, 0%, 0%)" stroke-width="2.375" stroke-opacity="1" stroke-miterlimit="4"/></svg>