<svg xmlns="http://www.w3.org/2000/svg" xmlns:xlink="http://www.w3.org/1999/xlink" width="400" zoomAndPan="magnify" viewBox="0 0 300 299.999988" height="400" preserveAspectRatio="xMidYMid meet" version="1.0"><defs><clipPath id="id1"><path d="M 48 68 L 252.761719 68 L 252.761719 233 L 48 233 Z M 48 68 " clip-rule="nonzero"/></clipPath></defs><g clip-path="url(#id1)"><path fill="rgb(100%, 44.309998%, 49.409485%)" d="M 230.984375 126.25 L 241.75 186.84375 C 242.777344 192.621094 238.675781 197.113281 225.984375 200.324219 L 173.292969 213.417969 C 168.808594 218.421875 167.398438 231.902344 171.242188 232.800781 C 171.242188 232.800781 214.0625 228.820312 236.367188 226.894531 C 241.621094 226.382812 249.699219 218.808594 249.957031 213.289062 L 252.777344 139.984375 Z M 193.292969 199.039062 L 178.164062 123.167969 L 183.804688 121.886719 L 200.085938 195.574219 C 201.113281 200.066406 236.367188 193.132812 235.46875 188.253906 L 218.675781 93.257812 C 217.777344 88.25 207.265625 69.25 203.546875 69.765625 L 183.679688 72.847656 C 178.804688 73.617188 177.523438 79.136719 170.730469 80.421875 C 164.703125 81.574219 156.757812 67.324219 151.371094 68.480469 L 131.5 72.972656 C 125.988281 74.257812 125.734375 86.582031 119.707031 88.25 C 113.554688 90.046875 109.578125 84.914062 105.222656 86.195312 L 89.710938 90.691406 C 83.429688 92.488281 83.300781 106.992188 77.273438 109.5625 C 71.761719 111.871094 67.019531 107.890625 62.917969 110.589844 L 50.226562 118.933594 C 47.277344 120.730469 48.816406 141.398438 50.351562 145.378906 L 74.0625 211.621094 C 75.34375 215.214844 101.753906 208.921875 100.855469 205.457031 L 84.320312 143.835938 L 89.960938 142.554688 L 109.828125 215.726562 C 110.855469 219.707031 144.828125 212.519531 143.929688 208.539062 C 138.417969 183.761719 127.519531 134.335938 127.519531 134.335938 L 133.160156 133.054688 L 150.726562 208.410156 C 151.75 212.519531 194.3125 203.789062 193.285156 199.039062 Z M 193.292969 199.039062 " fill-opacity="1" fill-rule="nonzero"/></g></svg>