<svg xmlns="http://www.w3.org/2000/svg" xmlns:xlink="http://www.w3.org/1999/xlink" width="400" zoomAndPan="magnify" viewBox="0 0 300 299.999988" height="400" preserveAspectRatio="xMidYMid meet" version="1.0"><defs><clipPath id="id1"><path d="M 50 76.777344 L 252.761719 76.777344 L 252.761719 221 L 50 221 Z M 50 76.777344 " clip-rule="nonzero"/></clipPath></defs><g clip-path="url(#id1)"><path fill="rgb(100%, 44.309998%, 49.409485%)" d="M 78.152344 76.867188 C 67.042969 76.773438 55.632812 81.648438 52.292969 90.746094 C 47.328125 101.722656 55.292969 114.546875 68.898438 118.5 C 68.941406 118.511719 69.003906 118.488281 69.042969 118.5 C 83.878906 123.855469 102.339844 126.46875 118.417969 143.078125 L 124.441406 149.3125 L 119.003906 154.839844 C 102.882812 171.421875 84.480469 173.972656 69.632812 179.300781 C 69.597656 179.316406 69.523438 179.285156 69.484375 179.300781 C 55.917969 183.214844 48.050781 195.976562 52.878906 206.9375 C 52.894531 206.96875 52.863281 207.019531 52.878906 207.054688 C 57.007812 218.144531 73.214844 223.054688 86.238281 220.109375 C 86.28125 220.101562 86.339844 220.117188 86.382812 220.109375 C 99.71875 217.785156 110.640625 206.953125 107.542969 196 C 106.015625 190.597656 104.0625 188.085938 102.253906 186.589844 C 101.347656 185.84375 100.558594 185.375 100.050781 184.945312 C 99.539062 184.511719 97.394531 183.3125 97.394531 183.3125 C 98.722656 182.347656 99.496094 181.890625 100.636719 181.183594 C 102.339844 180.074219 105.316406 178.710938 109.160156 177.066406 C 116.78125 173.804688 128.003906 169.195312 140.902344 161.777344 C 164.226562 175.019531 194.535156 192.164062 211.289062 201.644531 C 228.039062 211.125 245.1875 206.34375 252.285156 201.996094 L 162.441406 149.339844 L 252.800781 96.171875 C 238.796875 87.546875 222.8125 91.199219 212.167969 96.390625 C 188.5 109.792969 164.757812 123.132812 141.046875 136.492188 C 130.230469 130.589844 118.628906 125.179688 108.570312 120.851562 C 104.722656 119.195312 101.753906 117.847656 100.046875 116.734375 C 99.195312 116.179688 97.035156 114.972656 97.035156 114.972656 C 99.007812 113.824219 101.101562 111.707031 102.617188 110.089844 C 104.136719 108.476562 105.925781 106.085938 106.953125 101.917969 C 109.671875 90.902344 99.125 80.035156 85.792969 77.691406 C 83.21875 77.121094 80.433594 77.039062 78.152344 76.867188 Z M 76.683594 86.160156 C 81.644531 85.925781 86.765625 87.28125 90.058594 89.921875 C 94.988281 93.878906 95.929688 99.328125 94.023438 103.800781 C 92.121094 108.269531 87.554688 111.574219 81.09375 111.5625 L 80.945312 111.5625 C 75.023438 111.835938 69.246094 109.101562 65.808594 105.09375 C 62.375 101.082031 61.394531 96.09375 64.78125 91.804688 L 64.78125 91.6875 C 67.121094 88.125 71.726562 86.390625 76.683594 86.160156 Z M 80.503906 186.242188 C 80.945312 186.230469 81.398438 186.222656 81.679688 186.242188 C 88.144531 186.238281 92.71875 189.535156 94.613281 194.003906 C 96.507812 198.46875 95.589844 203.929688 90.644531 207.878906 C 87.347656 210.511719 82.089844 211.992188 77.125 211.761719 C 72.164062 211.527344 67.699219 209.679688 65.371094 206.113281 L 65.222656 205.996094 C 61.953125 201.835938 62.902344 197.128906 66.105469 193.179688 C 69.304688 189.230469 74.796875 186.324219 80.503906 186.238281 Z M 80.503906 186.242188 " fill-opacity="1" fill-rule="nonzero"/></g></svg>