<svg xmlns="http://www.w3.org/2000/svg" xmlns:xlink="http://www.w3.org/1999/xlink" width="400" zoomAndPan="magnify" viewBox="0 0 300 299.999988" height="400" preserveAspectRatio="xMidYMid meet" version="1.0"><defs><clipPath id="id1"><path d="M 141.0625 111.332031 L 278.042969 111.332031 L 278.042969 270.128906 L 141.0625 270.128906 Z M 141.0625 111.332031 " clip-rule="nonzero"/></clipPath><clipPath id="id2"><path d="M 108.277344 15.132812 L 208 15.132812 L 208 284.84375 L 108.277344 284.84375 Z M 108.277344 15.132812 " clip-rule="nonzero"/></clipPath></defs><g clip-path="url(#id1)"><path fill="rgb(100%, 44.309998%, 49.409485%)" d="M 251.230469 163.488281 C 250.347656 164.65625 248.710938 164.929688 247.496094 164.109375 C 236.710938 156.820312 225.140625 152.117188 212.34375 150.902344 C 207.660156 150.457031 202.738281 150.933594 198.117188 151.914062 C 193.792969 152.832031 191.617188 157.203125 193.472656 160.742188 C 194.511719 162.734375 196.796875 164.675781 198.929688 165.378906 C 204.039062 167.058594 209.351562 168.195312 214.652344 169.179688 C 226.566406 171.382812 238.554688 173.375 249.71875 178.296875 C 254.53125 180.421875 259.277344 183.007812 263.476562 186.160156 C 275.65625 195.304688 279.246094 208.097656 277.710938 222.695312 C 275.484375 243.875 263.949219 258.375 244.019531 264.519531 C 211.671875 274.5 180.324219 271.324219 151.097656 253.308594 C 148.238281 251.546875 145.628906 249.378906 142.847656 247.191406 C 141.695312 246.289062 141.449219 244.644531 142.285156 243.445312 C 149.355469 233.324219 156.269531 223.425781 162.886719 213.945312 C 163.730469 212.738281 165.375 212.417969 166.617188 213.210938 C 172.726562 217.097656 178.5 221.171875 184.769531 224.207031 C 196.132812 229.707031 208.300781 232.003906 220.972656 230.011719 C 223.097656 229.679688 225.269531 228.886719 227.144531 227.824219 C 232.597656 224.726562 232.769531 218.871094 227.480469 215.554688 C 225.308594 214.195312 222.828125 213.089844 220.339844 212.523438 C 210.882812 210.363281 201.34375 208.566406 191.875 206.445312 C 182.464844 204.335938 173.339844 201.382812 165.082031 196.207031 C 158.125 191.84375 152.597656 186.171875 149.441406 178.480469 C 148.933594 177.246094 148.851562 175.496094 149.300781 174.246094 C 155.390625 157.386719 161.574219 140.554688 167.851562 123.765625 C 168.320312 122.507812 169.507812 121.253906 170.691406 120.578125 C 180.265625 115.121094 190.691406 112.457031 201.613281 111.777344 C 225.101562 110.320312 247.257812 114.589844 267.277344 127.613281 C 268.328125 128.296875 270.46875 129.890625 272.148438 131.164062 C 273.351562 132.078125 273.589844 133.800781 272.675781 135.011719 C 265.550781 144.472656 258.441406 153.910156 251.230469 163.488281 " fill-opacity="1" fill-rule="nonzero"/></g><path fill="rgb(100%, 44.309998%, 49.409485%)" d="M 78.207031 216.8125 C 90.621094 216.734375 103.042969 216.773438 115.460938 216.773438 C 115.707031 216.773438 115.953125 216.773438 116.207031 216.773438 C 116.625 216.773438 117.054688 216.773438 117.523438 216.773438 C 117.976562 216.773438 118.46875 216.773438 119.015625 216.773438 L 132.121094 216.773438 C 133.273438 216.773438 134.300781 216.054688 134.699219 214.972656 C 152.296875 167.132812 169.898438 119.292969 187.5 71.453125 C 188.257812 69.402344 186.742188 67.230469 184.558594 67.230469 L 139.035156 67.230469 C 137.671875 67.230469 136.464844 68.113281 136.050781 69.410156 C 125.734375 101.621094 115.460938 133.710938 104.9375 166.582031 C 104.269531 164.617188 103.875 163.519531 103.523438 162.410156 C 93.605469 131.417969 83.667969 100.429688 73.820312 69.414062 C 73.410156 68.113281 72.199219 67.230469 70.835938 67.230469 L 25.253906 67.230469 C 23.070312 67.230469 21.558594 69.402344 22.3125 71.453125 C 39.867188 119.160156 57.429688 166.859375 74.941406 214.582031 C 75.574219 216.304688 76.433594 216.820312 78.207031 216.8125 " fill-opacity="1" fill-rule="nonzero"/><g clip-path="url(#id2)"><path fill="rgb(100%, 44.309998%, 49.409485%)" d="M 108.851562 284.84375 L 152.320312 139.84375 L 207.800781 15.136719 L 172.144531 139.675781 L 108.851562 284.84375 " fill-opacity="1" fill-rule="nonzero"/></g></svg>